<svg xmlns="http://www.w3.org/2000/svg" viewBox="0 0 98 115" fill="currentColor">
  <g transform="translate(277.55,-890.59)">
    <path d="m -237.34,978.75 c -1.67,-3.77 -2.66,-7.99 -3.97,-11.91 -0.42,-1.27 -0.76,-3.69 -2.39,-3.9 -2.66,-0.34 -4.26,6.44 -5.01,8.4 -0.33,0.86 -0.97,2.47 -0.11,3.23 1.69,1.5 3.69,-3.76 4.07,-4.82 h 0.26 c 1.12,4.89 2.64,9.72 4.01,14.55 0.45,1.58 0.93,4.3 3.14,4.14 2.32,-0.16 2.94,-4 3.59,-5.73 2.36,-6.3 4.65,-12.65 6.73,-19.05 4.01,5.87 13.33,10.09 18.96,3.44 1.7,-2.01 2.25,-4.63 2.73,-7.14 -1.42,1.76 -1.85,4.08 -3.52,5.74 -3.74,3.72 -9.57,2.58 -12.86,-0.98 -1.5,-1.63 -3.61,-8.33 -6.11,-7.84 -1.9,0.37 -2.63,3.92 -3.23,5.46 -2.1,5.43 -3.83,11.13 -6.3,16.4"/>
    <path d="m -221.99,1005.73 c -3.18,-3.74 -9.02,-6.48 -12.96,-9.49 -11.38,-8.68 -24.34,-20.83 -25.38,-36.01 -0.55,-8.08 1.71,-17.73 7.66,-23.52 10.12,-9.84 32.57,-8.89 41.53,2.36 0.32,-1.14 -0.5,-2.39 -0.95,-3.44 -1.32,-3.09 -2.98,-6.07 -5.05,-8.73 -9.8,-12.63 -26.61,-14.73 -40.57,-8.07 -3.4,1.62 -6.42,3.88 -9.26,6.33 -18.52,16 -9.89,43.75 4.28,59.42 10.82,11.96 25.51,17.42 40.7,21.17"/>
    <path d="m -214.32,890.76 c -13.45,2.12 -15.9,21.57 -3.18,26.75 2.44,0.99 5.33,1.21 7.94,0.83 14.3,-2.06 15.32,-23.33 1.59,-27.19 -2.01,-0.56 -4.28,-0.72 -6.35,-0.39"/>
    <path d="m -188.72,939.87 c 1.98,-1.06 3.31,-2.46 4.26,-4.48 0.59,-1.26 0.7,-1.85 0.7,-3.87 0,-2.02 -0.11,-2.61 -0.7,-3.87 -0.94,-2.01 -2.27,-3.42 -4.26,-4.49 -1.57,-0.85 -1.8,-0.9 -4.3,-0.9 -2.31,0 -2.83,0.09 -4.1,0.69 -1.94,0.93 -3.6,2.64 -4.59,4.72 -0.69,1.47 -0.81,2.02 -0.81,3.84 0,2.63 0.84,4.66 2.7,6.58 2.12,2.17 3.9,2.85 7.2,2.74 1.96,-0.07 2.46,-0.19 3.91,-0.96 z"/>
    <path d="m -213.66,1001.09 c 6.62,-1.14 15.02,-5.17 22.13,-10.6 4.8,-3.67 7.58,-6.86 9.64,-11.08 1.92,-3.93 2.32,-5.86 2.35,-11.11 0.02,-3.92 -0.06,-4.76 -0.58,-6.57 -0.88,-3.05 -1.8,-5.07 -3.43,-7.59 -3.2,-4.94 -8.27,-8.66 -14.28,-10.5 -2.14,-0.65 -2.69,-0.71 -6.96,-0.72 -4.3,-0.01 -4.8,0.04 -6.96,0.71 -2.64,0.82 -6.03,2.35 -6.54,2.97 -0.31,0.37 -0.07,0.4 2.42,0.23 4.17,-0.27 8.59,0.77 12.04,2.83 3.27,1.96 6.78,5.93 8.29,9.36 2.22,5.06 2.13,12.25 -0.21,17.41 -1.67,3.69 -3.87,6.44 -8.3,10.4 -8.04,7.18 -14.74,11.7 -18.64,12.57 -0.78,0.17 -1.42,0.42 -1.42,0.55 0,0.3 1.63,0.98 3.02,1.26 1.79,0.36 4.91,0.3 7.43,-0.14 z"/>
  </g>
</svg>