<svg xmlns="http://www.w3.org/2000/svg" viewBox="0 0 120 120" fill="currentColor">
  <path transform="scale(0.949) translate(1.15,3.34)" d="M 73.02,-0.43 A 2.02,2.02 0 0 0 71,1.59 V 41.24 H 47.84 V 18.69 a 2.02,2.02 0 0 0 -2.02,-2.02 h -5.26 a 2.02,2.02 0 0 0 -2.02,2.02 V 41.24 H 12.31 a 2.02,2.02 0 0 0 -2.02,2.02 v 4.83 a 2.02,2.02 0 0 0 2.02,2.02 h 96.67 a 2.02,2.02 0 0 0 2.02,-2.02 c 0,-3.62 0.59,-8.7 0.47,-13.73 -0.12,-5.03 -0.89,-10.19 -4.2,-13.89 -4.73,-5.29 -12,-5.82 -18.05,-3.55 -3.48,1.3 -6.59,3.59 -8.92,6.45 V 1.59 A 2.02,2.02 0 0 0 78.28,-0.43 Z M 94.57,24.82 c 2.12,-0.01 4,0.62 5.25,1.96 1.44,1.55 2.05,4.16 2.15,7.22 0.08,2.39 -0.11,4.86 -0.21,7.23 H 80.52 c 0.54,-5.74 3.25,-11.5 8.08,-14.67 1.57,-1.03 3.85,-1.73 5.97,-1.74 z M 28.5,54 a 6,6 0 1 0 0.01,0 z m 77.33,-1.82 c -0.91,0 -1,0.18 -1.36,0.33 -0.37,0.15 -0.77,0.33 -1.23,0.56 -0.91,0.45 -2.01,1.04 -3.13,1.7 -5.09,3.01 -11.76,9.34 -14.84,14.13 -1.68,2.62 -2.15,4.11 -2.15,6.67 0,0.78 -0.08,1.41 0.11,2.31 0.19,0.9 1.12,2.03 2.07,2.4 1.91,0.73 3.85,0.52 8.35,0.6 2.93,0.05 4.6,0.12 5.61,0.25 1.01,0.13 1.36,0.27 2.21,0.69 1.43,0.7 1.83,1.04 2.25,2.09 0.42,1.06 0.69,3.11 0.81,6.63 0.05,1.57 0.06,3.12 0.05,4.33 -0.01,0.61 -0.02,1.13 -0.04,1.51 -0.004,0.07 0,0.03 -0.006,0.09 L 83.72,96.37 63.24,96.26 63.14,77.88 c -0.04,-7.82 -0.1,-12.94 -0.21,-16.17 -0.05,-1.62 -0.11,-2.76 -0.2,-3.59 -0.04,-0.41 -0.09,-0.74 -0.17,-1.08 -0.04,-0.17 -0.09,-0.34 -0.19,-0.58 -0.11,-0.24 -0.24,-0.6 -0.83,-0.98 -0.77,-0.49 -1.1,-0.45 -1.61,-0.53 -0.51,-0.08 -1.06,-0.13 -1.62,-0.13 -0.67,-0.003 -1.63,-0.29 -2.88,0.52 -0.63,0.4 -1.07,1.05 -1.32,1.67 -0.25,0.62 -0.38,1.26 -0.48,2.04 -0.4,3.12 -0.34,8.79 -0.34,20.87 0,7.07 0.04,12.58 0.12,16.41 0.04,1.91 0.09,3.41 0.14,4.49 0.03,0.54 0.06,0.97 0.1,1.33 0.02,0.18 0.04,0.34 0.07,0.52 0.03,0.17 0.01,0.31 0.26,0.76 0.11,0.21 0.43,0.68 0.86,0.98 0.43,0.3 0.86,0.43 1.28,0.52 0.84,0.18 1.85,0.24 3.67,0.3 3.66,0.11 10.5,0.12 23.82,0.12 12.85,0 19.7,-0.01 23.44,-0.12 1.87,-0.05 2.95,-0.11 3.78,-0.26 0.42,-0.07 0.8,-0.15 1.26,-0.41 0.46,-0.26 0.94,-0.84 1.11,-1.25 0.23,-0.58 0.16,-0.63 0.19,-0.85 0.03,-0.23 0.05,-0.48 0.07,-0.78 0.04,-0.6 0.07,-1.37 0.1,-2.29 0.06,-1.84 0.09,-4.24 0.1,-6.79 0.005,-4.54 0.01,-6.85 -0.15,-8.53 -0.17,-1.69 -0.61,-2.79 -1.19,-4.03 -1.28,-2.74 -3.47,-4.86 -6.32,-6.18 -2.84,-1.32 -6.31,-1.92 -10.41,-1.92 -1,0 -1.32,-0.04 -1.89,-0.06 0.69,-0.92 1.77,-2.11 3.1,-3.35 2.75,-2.56 6.48,-5.33 9.5,-6.86 0.79,-0.4 1.5,-0.83 2.08,-1.26 0.29,-0.22 0.55,-0.43 0.81,-0.7 0.26,-0.28 0.75,-0.47 0.75,-1.72 0,-1.35 -0.47,-2.39 -1.03,-3.38 -0.28,-0.5 -0.58,-0.95 -0.99,-1.38 -0.4,-0.42 -0.86,-1.03 -2.12,-1.03 z m -66.69,19.78 A 2.02,2.02 0 0 0 37.13,73.95 l -0.22,16.45 c -0.11,8.15 -0.17,12.29 -0.32,14.46 -0.15,2.17 -0.17,1.95 -0.67,2.83 -0.69,1.2 -1.24,1.73 -2.24,2.18 -1.01,0.45 -2.62,0.74 -5.13,0.82 -1.93,0.07 -3.01,0.06 -3.64,-0.03 -0.63,-0.09 -0.91,-0.2 -1.71,-0.62 -1.22,-0.63 -1.47,-0.89 -2.2,-2.32 -0.47,-0.94 -0.62,-1.27 -0.73,-2.02 -0.11,-0.75 -0.13,-2 -0.11,-4.29 0.03,-2.84 0.37,-6.17 0.71,-7.59 0.2,-0.84 0.38,-1.65 0.52,-2.29 0.07,-0.32 0.12,-0.6 0.16,-0.84 0.04,-0.24 0.09,-0.25 0.09,-0.76 0,-0.7 -0.39,-1.29 -0.69,-1.57 -0.3,-0.28 -0.54,-0.38 -0.74,-0.46 -0.39,-0.16 -0.67,-0.2 -0.98,-0.24 -0.61,-0.08 -1.27,-0.09 -2.02,-0.04 -1.06,0.06 -1.83,0.08 -2.74,0.5 -0.91,0.42 -1.53,1.32 -1.84,1.98 -1.34,2.82 -1.88,6.86 -1.99,10.93 -0.11,4.07 0.16,7.94 1.47,10.64 0.88,1.82 2.32,3.49 3.91,4.91 1.59,1.42 3.26,2.57 5,3.11 a 2.02,2.02 0 0 0 0.6,0.09 h 10.34 a 2.02,2.02 0 0 0 0.12,-0.004 c 4.26,-0.25 8.02,-1.55 11.14,-6.08 1.3,-1.89 2.2,-3.82 2.57,-7.13 0.36,-3.3 0.37,-8.13 0.31,-16.86 L 45.98,73.96 a 2.02,2.02 0 0 0 -2.02,-2 h -2.41 z"/>
</svg>