<?xml version="1.0" encoding="UTF-8" standalone="no"?>
<!-- Created with Inkscape (http://www.inkscape.org/) -->

<svg
   version="1.1"
   id="svg1"
   width="546.1333"
   height="546.1333"
   viewBox="0 0 546.1333 546.1333"
   xmlns="http://www.w3.org/2000/svg"
   xmlns:svg="http://www.w3.org/2000/svg">
  <defs
     id="defs1" />
  <g
     id="g1">
    <path
       id="path8"
       style="fill:#ececec"
       d="M 129.125 -0.08203125 C 126.94322 0.018306818 124.67448 1.0286416 122.58398 3.1191406 C 119.88582 5.8172984 119.4668 7.0358016 119.4668 12.166016 C 119.4668 17.46735 119.21256 18.14373 117.06641 18.552734 C 92.159965 23.299304 86.753487 24.920136 72.472656 31.929688 C 37.833267 48.93196 14.460152 79.914244 6.3867188 119.53125 C 3.7288725 132.57353 2.6998365 410.64393 5.2421875 428.80078 C 14.84213 497.36126 59.18732 540.23705 125.86719 545.42773 C 151.14492 547.39547 427.03125 545.36333 437.16016 543.13477 C 497.69502 529.81587 532.04851 491.94898 540.89062 428.80078 C 543.43297 410.64393 542.40393 132.57353 539.74609 119.53125 C 531.67265 79.914244 508.29955 48.93196 473.66016 31.929688 C 459.37933 24.920136 453.97285 23.299304 429.06641 18.552734 C 426.92027 18.14373 426.66602 17.46735 426.66602 12.166016 C 426.66602 7.0358016 426.24699 5.8172984 423.54883 3.1191406 C 416.11595 -4.3137447 406.43105 1.909821 406.40625 14.134766 C 406.40031 17.0681 406.39974 17.068359 273.06641 17.068359 C 139.73314 17.068359 139.73256 17.0681 139.72656 14.134766 C 139.70874 5.3480867 134.70067 -0.33845076 129.125 -0.08203125 z M 129.71484 62.935547 C 136.53312 62.935547 136.5332 62.935493 136.5332 76.191406 C 136.5332 89.241502 136.48954 89.481776 133.72266 91.658203 C 125.2333 98.33593 120.85431 91.469758 122.14062 73.498047 C 122.89662 62.935459 122.89657 62.935547 129.71484 62.935547 z M 416.41797 62.935547 C 423.23624 62.935547 423.23618 62.935459 423.99219 73.498047 C 424.86928 85.752385 424.18848 90.042489 421.01172 92.267578 C 413.32993 97.648113 409.59961 92.393729 409.59961 76.191406 C 409.59961 62.935493 409.5997 62.935547 416.41797 62.935547 z " />
    <path
       style="fill:#d1d1d1"
       d="M 113.34356,535.98303 C 65.59558,528.51889 26.208084,496.47546 12.40889,453.86833 5.595762,432.83175 6.0588148,443.37982 5.2445266,290.66834 4.8378576,214.40168 4.4528894,149.12168 4.3890418,145.60168 3.2946272,85.265202 45.301714,33.623032 105.44511,21.366589 c 18.11232,-3.691056 16.15488,-7.665053 16.15488,32.797761 0,39.690031 0.003,39.704004 7.44973,39.704004 8.72442,0 8.85943,-0.650796 8.40871,-40.533331 l -0.39177,-34.666664 h 135.99999 135.99999 l -0.39177,34.666664 c -0.45072,39.882535 -0.31571,40.533331 8.40871,40.533331 7.44711,0 7.44973,-0.01397 7.44973,-39.704004 0,-40.462814 -1.95744,-36.488817 16.15488,-32.797761 60.1434,12.256443 102.15048,63.898613 101.05607,124.235091 -0.0639,3.52 -0.44882,68.8 -0.85549,145.06666 -0.73608,138.04508 -0.74992,138.70969 -3.08822,148.26666 -13.25151,54.16083 -51.1388,88.85658 -106.03372,97.10168 -14.41845,2.16561 -304.53935,2.11674 -318.42327,-0.0536 z m 333.58975,-19.41609 c 38.45017,-2.90526 70.4041,-34.90625 81.24562,-81.36528 2.9287,-12.55031 4.18857,-75.54948 3.829,-191.46665 L 531.7333,155.20168 H 273.06665 14.399998 l -0.274628,88.53333 c -0.558548,180.06235 0.486726,194.89962 15.720541,223.14716 17.214225,31.91974 40.645752,47.81185 73.087419,49.57054 9.38666,0.50886 17.54666,1.12562 18.13333,1.37058 2.18174,0.91099 313.04446,-0.28752 325.86665,-1.25635 z M 122.66666,8.1323006 c 0,-1.3948323 0.71471,-3.1292195 1.58825,-3.8541937 0.87355,-0.7249742 1.35914,-1.68886 1.0791,-2.1419684 -0.73906,-1.1958333 4.05396,-1.9051427 6.47262,-0.9578691 1.13302,0.4437484 1.70003,0.8405522 1.26003,0.8817863 -0.44,0.041234 0.16,1.0349708 1.33333,2.2083041 4.41216,4.4121574 2.92128,6.3999992 -4.8,6.3999992 -6.58922,0 -6.93333,-0.125867 -6.93333,-2.5360584 z m 286.93332,0.4027256 c 0,-1.1733332 0.96,-3.0933331 2.13333,-4.2666664 1.17333,-1.1733333 1.77333,-2.1670701 1.33333,-2.2083041 -0.44,-0.041234 0.12702,-0.4380379 1.26003,-0.8817863 2.41866,-0.9472736 7.21168,-0.2379642 6.47262,0.9578691 -0.28004,0.4531084 0.20556,1.4169942 1.0791,2.1419684 4.32859,3.5924131 1.98836,6.3902521 -5.34508,6.3902521 -6.22222,0 -6.93333,-0.218803 -6.93333,-2.1333328 z"
       id="path7" />
    <path
       style="fill:#abaaaa"
       d="m 117.86666,534.77371 c -18.357955,-2.30805 -45.436304,-12.13657 -51.305767,-18.62226 -3.022383,-3.33969 3.900265,-2.60669 16.400167,1.73652 26.22849,9.11335 12.838485,8.51369 190.10559,8.51369 177.2671,0 163.8771,0.59966 190.10559,-8.51369 23.44238,-8.14529 22.09896,-1.49203 -1.6565,8.20378 -22.88556,9.34075 -11.3424,8.782 -184.71576,8.94124 -85.65332,0.0787 -157.17332,-0.038 -158.93332,-0.25928 z M 5.190556,152.89631 C 3.7667005,151.18067 5.9162131,127.57211 8.4788839,116.77989 20.606518,65.706598 56.140466,31.746962 107.90939,21.754601 c 13.84085,-2.671539 12.62394,-5.92289 12.62394,33.728763 0,38.652954 0.18065,39.451657 8.92336,39.451657 8.7727,0 9.20997,-1.953632 9.20997,-41.148505 V 19.201692 h 134.39999 134.39999 v 34.584824 c 0,39.194873 0.43727,41.148505 9.20997,41.148505 8.74271,0 8.92336,-0.798703 8.92336,-39.451657 0,-39.651653 -1.2169,-36.400302 12.62394,-33.728763 51.76892,9.992361 87.30287,43.951997 99.43051,95.025289 2.41738,10.18038 4.72788,34.59946 3.39944,35.9279 -1.50579,1.50579 -534.6144138,1.69334 -535.863304,0.18852 z"
       id="path6" />
    <path
       style="fill:#f2403c"
       d="m 5.333332,147.78965 c 0,-62.123828 40.934647,-112.80282 100.871368,-124.883429 14.53431,-2.929478 13.26196,-6.109303 13.26196,33.144043 0,37.512693 0.58528,39.951423 9.58807,39.951423 10.05125,0 10.6786,-2.497852 10.6786,-42.518283 0,-29.09566 0.19902,-33.063177 1.68723,-33.634257 2.2054,-0.84629 261.08678,-0.84629 263.29218,0 1.48821,0.57108 1.68724,4.538597 1.68724,33.634257 0,40.020431 0.62734,42.518283 10.67859,42.518283 9.00279,0 9.58807,-2.43873 9.58807,-39.951423 0,-39.253346 -1.27235,-36.073521 13.26196,-33.144043 59.93672,12.080609 100.87137,62.759601 100.87137,124.883429 0,4.74536 0,4.74536 -267.73332,4.74536 -267.733318,0 -267.733318,0 -267.733318,-4.74536 z"
       id="path5" />
    <path
       style="fill:#d83835"
       d="m 6.3999986,145.67886 c 0,-58.611046 38.9513824,-107.966194 95.6392114,-121.184067 14.1061,-3.289114 16.56696,-3.010371 16.15851,1.830284 -0.33106,3.923386 -0.33106,3.923386 -9.3924,5.866668 C 54.772832,43.77948 21.548569,81.466157 15.92787,137.54374 c -1.568238,15.64628 -1.316522,14.99127 -5.761061,14.99127 -3.7668104,0 -3.7668104,0 -3.7668104,-6.85615 z m 525.4202114,5.52282 c -0.20871,-0.73333 -0.93536,-6.8794 -1.61478,-13.65794 -5.6207,-56.077583 -38.84496,-93.76426 -92.87745,-105.351995 -9.06134,-1.943282 -9.06134,-1.943282 -9.3924,-5.866668 -0.40845,-4.840655 2.05241,-5.119398 16.15852,-1.830284 52.02892,12.131559 86.86322,51.230938 94.48898,106.058117 2.33873,16.81485 1.72366,21.9821 -2.61659,21.9821 -2.09995,0 -3.93473,-0.59001 -4.14628,-1.33333 z M 123.19999,115.27795 C 99.901367,108.91943 92.000574,81.495275 108.77688,65.214421 c 9.32089,-9.04561 10.65146,-7.652492 10.67345,11.175146 0.0191,16.38218 1.61701,19.61212 9.7023,19.61212 8.60431,0 9.99469,-2.769995 10.39272,-20.705069 0.41055,-18.499085 1.04115,-19.114216 10.20283,-9.95254 20.65116,20.65116 1.07448,57.472492 -26.54819,49.933872 z m 286.19008,-0.45076 c -22.59925,-6.31629 -29.58633,-32.90173 -13.00495,-49.483112 9.16168,-9.161676 9.79228,-8.546545 10.20283,9.95254 0.39803,17.935074 1.78841,20.705069 10.39272,20.705069 8.08529,0 9.68318,-3.22994 9.7023,-19.61212 0.022,-18.827638 1.35256,-20.220756 10.67345,-11.175146 21.33398,20.703929 0.54622,57.581769 -27.96635,49.612769 z M 140.15043,27.283435 c -2.68967,-7.009173 -13.50527,-6.481743 132.91622,-6.481743 132.79999,0 132.79999,0 132.79999,3.733333 0,3.733333 0,3.733333 -132.5652,4.004169 -114.19392,0.233302 -132.64639,0.05927 -133.15101,-1.255759 z"
       id="path4" />
    <path
       id="path2"
       style="fill:#464343"
       d="m 222.71094,214.33789 c -32.71266,1.25125 -62.93265,22.34364 -65.25196,53.30859 -0.3616,4.82786 2.34946,10.55279 6.28321,13.12696 3.93374,2.57417 7.92163,2.84707 11.49804,2.41797 7.15284,-0.8582 14.68163,-5.04617 17.52344,-13.79883 4.7836,-14.73334 19.08164,-21.94201 33.63867,-21.76172 14.55703,0.18029 26.83797,7.0792 29.45508,21.51172 1.8842,10.39069 -0.25476,16.5504 -5.7832,21.67383 -5.52845,5.12342 -15.94357,9.17273 -31.42578,9.8457 -8.00005,0.34774 -11.56013,-0.4073 -17.50782,2.23047 -2.97384,1.31888 -6.34114,5.26407 -7.16601,8.26953 -0.82487,3.00545 -0.5957,4.67539 -0.5957,6.27539 0,1.59994 -0.25582,3.31931 0.65625,6.43359 0.91206,3.11429 4.47919,6.9675 7.45507,8.20118 5.95177,2.46735 9.72667,1.78434 18.25977,2.12304 9.72318,0.38594 15.0057,0.71768 18.28711,1.26953 3.2814,0.55185 4.93889,1.1989 9.24609,3.125 11.02863,4.9318 16.30912,14.03261 16.86328,23.48828 0.55417,9.45568 -3.60438,18.99969 -13.95312,25.06446 -11.97391,7.01718 -26.69056,7.7857 -38.80859,3.74023 -12.11804,-4.04546 -20.93455,-12.37269 -23.3125,-23.02344 -0.17678,-0.79179 -0.2708,-2.05176 -1.50977,-4.27734 -1.23897,-2.22558 -4.28194,-4.60151 -6.49023,-5.34375 -4.4166,-1.48449 -6.19659,-0.89062 -10.18555,-0.89062 -2.01833,0 -3.59671,-0.0154 -5.26563,0.0898 -1.66892,0.10519 -3.63741,-0.0326 -6.80468,1.92773 -3.16728,1.96038 -5.1678,6.92874 -5.24414,9.26758 -0.0763,2.33885 0.2425,3.38244 0.42968,4.51563 4.36523,26.4272 24.83547,45.60737 53.42383,51.73437 23.59963,5.05782 46.67844,0.80427 64.28906,-10.125 17.61063,-10.92926 29.91507,-29.16221 30.01563,-50.55664 0.10224,-21.75292 -11.89871,-40.16625 -30.44531,-49.4707 16.51199,-11.80304 24.22749,-30.48966 22.01953,-48.36719 -2.71759,-22.00389 -19.53917,-42.66713 -46.57617,-49.58203 -7.70419,-1.9704 -15.46837,-2.73212 -23.01758,-2.44336 z m 152.9707,2.46094 c -3.99994,-0.14368 -9.43926,0.17733 -14.63477,2.79101 -5.1955,2.61369 -10.93266,6.67752 -22.66601,14.73633 -14.87451,10.21625 -21.35239,14.10391 -26.16992,18.9375 -2.40877,2.4168 -4.55853,6.23248 -5.06446,9.48242 -0.50592,3.24995 -0.16796,4.94721 -0.16796,6.85547 0,2.44848 0.0971,4.65046 0.31445,6.60547 0.10867,0.97751 0.21131,1.83402 0.5332,3.06445 0.16095,0.61522 0.30108,1.29161 1.00977,2.60547 0.35434,0.65693 0.83189,1.52533 2.04883,2.64649 1.21693,1.12115 3.65122,2.60351 6.65429,2.60351 4.11258,0 3.61947,-0.67786 4.07227,-0.8789 0.45279,-0.20104 0.69434,-0.33312 0.93164,-0.46094 0.4746,-0.25564 0.85984,-0.48472 1.3125,-0.75781 0.90533,-0.54619 2.00923,-1.24243 3.35156,-2.10547 2.68467,-1.72609 6.28198,-4.09683 10.38477,-6.83789 6.16423,-4.11832 13.36586,-9.07886 20.22265,-13.8086 0.0274,1.47979 0.0679,2.03062 0.0918,3.75196 0.18729,13.46774 0.27148,34.4187 0.27148,64.26953 v 83.67187 a 9.6904316,9.6904316 0 0 0 9.68946,9.68946 h 8.00586 8.00586 a 9.6904316,9.6904316 0 0 0 9.68945,-9.7168 l -0.27149,-93.59961 -0.27343,-93.60156 a 9.6904316,9.6904316 0 0 0 -9.3418,-9.65625 z" />
  </g>
</svg>
