<?xml version="1.0" encoding="UTF-8" standalone="no"?>
<!-- Created with Inkscape (http://www.inkscape.org/) -->

<svg
   version="1.1"
   id="svg1"
   width="512"
   height="512"
   viewBox="0 0 512 512"
   xmlns="http://www.w3.org/2000/svg"
   xmlns:svg="http://www.w3.org/2000/svg">
  <defs
     id="defs1" />
  <g
     id="g1">
    <path
       style="fill:#fdba00"
       d="M 25.387997,446.54925 C 15.204525,443.36667 7.8085278,436.86457 3.2030711,427.04563 -0.05152674,420.10676 -1.5439057,117.90847 1.6092811,104.31219 9.3248073,71.043494 48.513881,53.717403 77.823344,70.616784 80.145106,71.955476 120.96238,102.28935 168.5284,138.02538 216.09441,173.76142 255.48162,203 256.05552,203 c 0.5739,0 40.73632,-29.76609 89.24982,-66.14686 48.51351,-36.38077 90.05484,-66.964521 92.31409,-67.963891 30.50208,-13.492521 65.5798,3.53458 72.97521,35.422941 1.34734,5.80964 1.50043,25.33193 1.26969,161.91828 -0.29344,173.70513 0.44572,162.02473 -10.90204,172.27675 -9.92887,8.97014 -9.8449,8.95717 -60.11033,9.28168 l -44.75,0.2889 v -99.04446 -99.04447 l -70,52.51113 -70,52.51113 -70,-52.51113 -70,-52.51113 V 348.99443 448 l -43.250002,-0.0669 c -32.816156,-0.0508 -44.266597,-0.3846 -47.463961,-1.38385 z"
       id="path6" />
    <path
       style="fill:#0084f5"
       d="M 25.387997,446.54925 C 15.204525,443.36667 7.8085278,436.86457 3.2030711,427.04563 -0.05152674,420.10676 -1.5439057,117.90847 1.6092811,104.31219 9.3248073,71.043494 48.513881,53.717403 77.823344,70.616784 80.145106,71.955476 120.96238,102.28935 168.5284,138.02538 216.09441,173.76142 255.48573,203 256.06465,203 c 0.74775,0 125.18852,-92.58925 138.78731,-103.263695 0.99763,-0.783095 1.25,14.285545 1.25,74.635685 v 75.61688 l -70,52.51113 -70,52.51113 -70,-52.51113 -70,-52.51113 V 348.99443 448 L 72.851958,447.9331 C 40.035802,447.8823 28.585361,447.5485 25.387997,446.54925 Z M 396.10196,349.0456 v -99.0322 l 58.01473,-43.52445 58.01474,-43.52446 -0.26474,129.26776 c -0.29723,145.13759 0.42112,133.91499 -9.25751,144.62808 -9.18467,10.16633 -11.6655,10.6055 -61.73388,10.92857 l -44.77334,0.2889 z"
       id="path5" />
    <path
       style="fill:#fd402f"
       d="m 396.10196,349.0456 v -99.0322 l 58.01473,-43.52445 58.01474,-43.52446 -0.26474,129.26776 c -0.29723,145.13759 0.42112,133.91499 -9.25751,144.62808 -9.18467,10.16633 -11.6655,10.6055 -61.73388,10.92857 l -44.77334,0.2889 z M 127.85196,258.92496 0.10195813,162.99385 0.11673922,136.74693 C 0.12793022,116.87495 0.49832848,108.94386 1.6417415,104.09307 9.4464351,70.982596 48.610225,53.772953 77.823344,70.616784 80.145106,71.955476 120.96238,102.28935 168.5284,138.02538 216.09441,173.76142 255.48573,203 256.06465,203 c 0.74775,0 125.18852,-92.58925 138.78731,-103.263695 0.99763,-0.783095 1.25,14.285545 1.25,74.635685 v 75.61688 l -69.99258,52.50556 c -38.49592,28.87807 -70.10842,52.47318 -70.25,52.4336 -0.14158,-0.0396 -57.74492,-43.24096 -128.00742,-96.00307 z"
       id="path4" />
    <path
       style="fill:#e41b18"
       d="m 396.10196,349.0456 v -99.0322 l 58.01473,-43.52445 58.01474,-43.52446 -0.26474,129.26776 c -0.29723,145.13759 0.42112,133.91499 -9.25751,144.62808 -9.18467,10.16633 -11.6655,10.6055 -61.73388,10.92857 l -44.77334,0.2889 z M 57.250669,205.72765 -0.10062044,162.59916 0.35242756,135.04958 C 0.83786547,105.53039 1.2879431,102.49744 6.7976161,91.617213 17.039771,71.391519 44.306457,59.896799 66.601958,66.405709 c 8.178835,2.387715 12.262215,4.907498 32.25,19.900913 l 17.250002,12.939724 v 74.876824 c 0,41.18226 -0.3375,74.84446 -0.75,74.8049 -0.4125,-0.0396 -26.558082,-19.47975 -58.101291,-43.20042 z"
       id="path3" />
    <path
       style="fill:#00a849"
       d="m 396.10196,349.0456 v -99.0322 l 58.01473,-43.52445 58.01474,-43.52446 -0.26474,129.26776 c -0.29723,145.13759 0.42112,133.91499 -9.25751,144.62808 -9.18467,10.16633 -11.6655,10.6055 -61.73388,10.92857 l -44.77334,0.2889 z"
       id="path2" />
  </g>
</svg>
