<?xml version="1.0" encoding="UTF-8" standalone="no"?>
<!-- Created with Inkscape (http://www.inkscape.org/) -->

<svg
   version="1.1"
   id="svg1"
   width="512"
   height="512"
   viewBox="0 0 512 512"
   xmlns="http://www.w3.org/2000/svg"
   xmlns:svg="http://www.w3.org/2000/svg">
  <defs
     id="defs1" />
  <g
     id="g1">
    <rect
       style="fill:#ffffff;stroke:none;stroke-width:1.00157;stroke-linecap:round;stroke-linejoin:round;stroke-opacity:0.445693;paint-order:stroke fill markers"
       id="rect23"
       width="223.36406"
       height="219.00148"
       x="17.450317"
       y="148.3277" />
    <path
       style="fill:#a2d0ee"
       d="m 131.97243,492.17561 c -10.84405,-5.40382 -13.27775,-11.40781 -13.27775,-32.75653 0,-9.00331 -0.29684,-28.57363 -0.65964,-43.4896 l -0.65963,-27.11994 -50.590372,-0.29253 C 6.7597511,388.16994 5.6906417,387.91995 1.2214498,373.18642 -1.0710963,365.62861 -1.0640122,146.64227 1.2290281,138.92077 5.7018897,123.85901 6.4021299,123.72449 80.334286,123.72449 h 61.283334 l 0.28853,-45.330027 c 0.32757,-51.463028 0.3135,-51.390221 11.2364,-58.143537 4.89499,-3.026436 4.89499,-3.026436 161.36341,-3.285719 175.73123,-0.291202 162.77161,-0.898401 169.51474,7.942302 6.1467,8.058732 5.98484,6.00488 5.17294,65.64094 -0.40677,29.878181 -0.40588,77.236551 0.002,105.240831 l 0.74157,50.91688 9.64952,5.60382 c 13.46272,7.81829 12.10795,-5.32751 12.10795,117.48815 0,124.919 0.88561,116.23659 -12.5,122.54894 -8.21117,3.8722 -359.43677,3.70821 -367.22225,-0.17146 z m 16.02484,-164.06409 c 66.27378,-14.85223 73.55181,-120.78543 9.8765,-143.75439 -36.92998,-13.32139 -77.060129,3.38732 -90.623542,37.73229 -24.268197,61.45138 20.038754,119.62709 80.747042,106.0221 z m -30.00275,-23.2039 c -22.327374,-7.90903 -33.952129,-37.76299 -26.321697,-67.59769 11.786037,-46.08294 67.853977,-46.14316 79.558867,-0.0854 10.89859,42.885 -18.33216,80.04754 -53.23717,67.68313 z"
       id="path23" />
    <path
       style="fill:#4fd7fd"
       d="m 134.87671,492.20504 c -14.42933,-6.26739 -14.5905,-6.89527 -15.18203,-59.14722 -0.275,-24.29167 -0.87457,-44.54167 -1.33238,-45 -0.45781,-0.45833 -24.116423,-1.05833 -52.574695,-1.33333 C 7.4681265,386.16093 10.424067,386.61079 3.9284472,377.31021 -0.55577472,370.88959 -0.86130045,142.56957 3.6049059,135.52709 10.333901,124.91657 7.8589287,125.2621 79.444675,124.93912 l 63.250005,-0.28538 V 81.631937 c 0,-49.287 0.0787,-49.936076 6.91183,-56.978802 7.14587,-7.365105 -3.60129,-6.917491 166.08817,-6.917491 167.79783,0 158.65143,-0.34931 165.69288,6.327967 7.58817,7.195724 7.17808,-0.009 6.64029,116.660879 -0.26493,57.475 -0.11078,104.98346 0.34257,105.57436 0.45334,0.5909 5.18589,3.62789 10.51677,6.74888 5.33088,3.12098 10.39338,6.67515 11.25,7.89815 2.669,3.81052 2.3325,214.35159 -0.35093,219.56845 -2.52006,4.89925 -6.57631,8.63268 -12.09158,11.12925 -5.96463,2.69997 -356.6451,3.24265 -362.81797,0.56146 z M 150.28472,328.7317 c 64.7699,-16.31779 71.82522,-121.64072 9.71363,-145.00665 -42.5555,-16.00907 -86.446545,5.85432 -97.363287,48.49944 -15.724859,61.42753 29.451566,111.16932 87.649657,96.50721 z m -30.304,-24.40165 C 92.912961,295.509 81.639912,254.99769 97.810561,224.65844 c 14.229819,-26.69786 54.231679,-26.69495 67.852939,0.005 8.31276,16.29435 8.02078,47.16492 -0.58499,61.84955 -9.09576,15.52073 -28.55441,23.20841 -45.09779,17.81712 z"
       id="path22" />
    <path
       style="fill:#5ba7df"
       d="m 134.87671,492.20504 c -14.42933,-6.26739 -14.5905,-6.89527 -15.18203,-59.14722 -0.275,-24.29167 -0.87457,-44.54167 -1.33238,-45 -0.45781,-0.45833 -24.116423,-1.05833 -52.574695,-1.33333 C 7.4681265,386.16093 10.424067,386.61079 3.9284472,377.31021 -0.55577472,370.88959 -0.86130045,142.56957 3.6049059,135.52709 10.333901,124.91657 7.8589287,125.2621 79.444675,124.93912 l 63.250005,-0.28538 V 81.631937 c 0,-29.361849 0.36889,-44.486818 1.16183,-47.635836 1.51529,-6.017786 8.7081,-13.625965 14.33817,-15.16618 5.6875,-1.555925 309.37793,-1.543326 315,0.01307 5.30735,1.469268 12.91223,9.074148 14.3815,14.381501 1.63553,5.907937 1.52036,55.121877 -0.1315,56.190983 -0.6875,0.444957 -24.875,1.034015 -53.75,1.309015 l -52.5,0.5 -0.25919,50.79857 c -0.17212,33.734 0.09,51.45111 0.78042,52.74109 1.0062,1.88011 2.71754,1.95085 53.25919,2.20144 l 52.21958,0.2589 0.5,24.66872 c 0.275,13.5678 0.725,24.85995 1,25.09368 0.275,0.23372 4.86163,2.96979 10.19251,6.08015 5.33088,3.11036 10.39338,6.65584 11.25,7.87884 2.669,3.81052 2.3325,214.35159 -0.35093,219.56845 -2.52006,4.89925 -6.57631,8.63268 -12.09158,11.12925 -5.96463,2.69997 -356.6451,3.24265 -362.81797,0.56146 z M 150.28472,328.7317 c 64.7699,-16.31779 71.82522,-121.64072 9.71363,-145.00665 -42.5555,-16.00907 -86.446545,5.85432 -97.363287,48.49944 -15.724859,61.42753 29.451566,111.16932 87.649657,96.50721 z m -30.304,-24.40165 C 92.912961,295.509 81.639912,254.99769 97.810561,224.65844 c 14.229819,-26.69786 54.231679,-26.69495 67.852939,0.005 8.31276,16.29435 8.02078,47.16492 -0.58499,61.84955 -9.09576,15.52073 -28.55441,23.20841 -45.09779,17.81712 z"
       id="path21" />
    <path
       style="fill:#27a7e8"
       d="m 134.69468,491.13255 c -1.925,-0.83252 -5.00089,-2.9524 -6.83532,-4.71086 -6.85946,-6.5754 -6.59924,-4.64616 -7.1939,-53.33465 -0.42466,-34.77024 -0.8231,-44.47967 -1.87737,-45.75 -1.19873,-1.44438 -6.59618,-1.61255 -51.755698,-1.61255 -48.196489,0 -50.587579,-0.0868 -54.280829,-1.97098 -3.995399,-2.0383 -10.0568878,-8.52168 -10.0568878,-10.75686 0,-0.69969 -0.45,-1.27216 -1,-1.27216 -0.6608947,0 -0.99999997,-39.16667 -0.99999997,-115.5 0,-66.97096 0.37461557,-115.5 0.89159197,-115.5 0.4903756,0 1.148064,-1.02187 1.46153,-2.27081 0.3134659,-1.24895 2.0497495,-3.79045 3.858408,-5.64778 6.6369578,-6.81555 3.6701608,-6.52888 73.2884698,-7.08141 l 63.000005,-0.5 0.5,-45.5 c 0.55924,-50.890629 0.42013,-49.901129 7.8804,-56.055237 6.13269,-5.058968 1.95401,-4.934528 165.1196,-4.917224 147.28561,0.01562 154.68718,0.101419 158.50858,1.837443 5.04149,2.290303 10.06619,7.941976 11.43129,12.857684 1.65104,5.945362 1.40647,54.745008 -0.28139,56.145806 -0.93829,0.778715 -16.94381,1.191235 -53.25,1.372444 l -51.90848,0.259084 -0.25919,50.79857 c -0.17287,33.88048 0.0886,51.44848 0.78518,52.75 1.01514,1.89679 2.4988,1.95143 52.99202,1.95143 h 51.94765 l 0.26717,25.22103 c 0.25594,24.16053 0.35212,25.26429 2.28758,26.25 6.58953,3.35597 18.42437,10.84129 20.30365,12.84169 2.64763,2.81827 3.07661,215.56356 0.44101,218.71204 -0.6792,0.81138 -2.46081,3.00204 -3.95913,4.86814 -7.0477,8.77764 9.16361,8.0912 -190.30594,8.05819 -156.23784,-0.0259 -177.91925,-0.21069 -181,-1.54303 z m 15.59004,-161.40731 c 45.99079,-11.62421 67.63124,-68.45054 44.1751,-116.00075 -24.02688,-48.70722 -102.007292,-47.78138 -126.341002,1.5 -31.571825,63.94024 16.60207,131.07207 82.165902,114.50075 z m -30.304,-26.38752 c -35.724262,-11.7071 -38.885751,-78.31685 -4.48254,-94.44305 8.57676,-4.02028 25.08397,-3.9531 33.41094,0.13597 30.62715,15.03987 29.27647,79.16626 -1.95549,92.84092 -6.1123,2.67622 -20.83788,3.47666 -26.97291,1.46616 z"
       id="path20" />
    <path
       style="fill:#138bdb"
       d="m 409.86239,435.97449 c -92.61018,-54.15674 -119.43524,-69.5243 -122.2817,-70.05284 -1.4293,-0.2654 -1.68683,1.46538 -2.08308,14 -0.50106,15.8496 -1.63324,19.50955 -7.82729,25.30284 -1.76414,1.65 -4.93129,5.31071 -7.0381,8.1349 -7.75168,10.39117 -3.40893,9.8651 -81.43754,9.8651 h -68 l -0.78644,-17.44144 c -0.44497,-9.86847 -1.25797,-18.00961 -1.87244,-18.75 -0.86784,-1.04569 -11.15598,-1.31297 -51.21357,-1.33052 -46.470483,-0.0204 -50.422394,-0.15589 -54.168925,-1.8577 -4.4831776,-2.03643 -9.1338628,-6.97818 -10.0673297,-10.69741 -0.3344639,-1.33261 -1.0093325,-2.42293 -1.4997081,-2.42293 -0.5169341,0 -0.89159197,-48.1391 -0.89159197,-114.55902 0,-76.11803 0.33555617,-114.35163 0.99999997,-113.94098 0.55,0.33992 1,-0.24101 1,-1.29094 0,-3.2342 5.5848311,-9.82967 10.2258648,-12.07635 4.350796,-2.10619 5.171671,-2.13271 66.008072,-2.13271 33.881378,0 62.314298,-0.27314 63.184278,-0.60699 1.40924,-0.54078 1.58179,-5.40961 1.58179,-44.633979 0,-49.378085 0.0556,-49.851403 6.62855,-56.434061 6.6515,-6.661317 -2.48888,-6.315339 166.37145,-6.297431 173.32767,0.01838 158.75736,-0.623663 165.7165,7.302351 4.8931,5.572938 5.346,8.876402 5.05084,36.841351 l -0.26734,25.328759 -52.5,0.74022 c -28.875,0.407121 -79.40211,0.983307 -112.28247,1.280413 l -59.78246,0.540193 0.28246,11.156014 c 0.28247,11.15602 0.28247,11.15602 5.06096,12.37325 7.86409,2.00322 12.19402,5.46274 15.53224,12.40991 1.433,2.98222 1.75632,8.30794 2.18553,36 l 0.50374,32.5 46.43243,0.26011 c 41.45558,0.23222 46.62724,0.43641 48.25,1.90498 1.71228,1.5496 1.81757,4.65095 1.81757,53.53581 v 51.89092 l 26.75,-0.29591 26.75,-0.29591 25,-14.17265 25,-14.17264 0.5,-12.82736 c 0.58664,-15.04996 0.002,-14.6728 11.80908,-7.61584 14.87992,8.89343 13.25525,-5.78354 12.95411,117.02481 -0.19027,77.59767 -0.57218,107.53452 -1.37841,108.05027 -0.61337,0.39238 -1.42492,1.70615 -1.80345,2.91949 -0.66304,2.12534 -5.95774,7.29392 -7.47189,7.29392 -0.40542,0 -41.32919,-23.7375 -90.94173,-52.75 z M 151.33821,329.66055 C 210.79221,314.6814 223.72,219.00051 170.5532,187.44698 135.28878,166.51818 84.669716,180.03618 67.800764,214.88739 36.184756,280.20596 84.446626,346.51357 151.33821,329.66055 Z m -29.26085,-25.82792 c -37.386698,-9.60983 -41.637502,-78.11734 -5.88268,-94.80739 23.07646,-10.7719 47.22617,3.0282 53.00088,30.28681 8.49279,40.08887 -15.31841,72.69437 -47.1182,64.52058 z"
       id="path19" />
    <path
       style="fill:#117dd5"
       d="m 411.01848,435.24072 c -49.04692,-28.78404 -90.17235,-52.65077 -91.38985,-53.03719 -1.2175,-0.38642 -9.20008,-4.70229 -17.73906,-9.59081 -8.53898,-4.88853 -16.11517,-8.88823 -16.83598,-8.88823 -0.72082,0 -2.78395,-0.89832 -4.58474,-1.99626 -1.80079,-1.09795 -3.58855,-1.99795 -3.9728,-2 -0.38424,-0.002 -0.83424,10.45876 -1,23.24626 -0.30137,23.25 -0.30137,23.25 -4.51857,28.79742 -8.47375,11.14661 -2.90798,10.41279 -81.37543,10.72894 l -68.59263,0.27635 -0.67604,-17.19639 c -0.39525,-10.05397 -1.13449,-17.74878 -1.77981,-18.52635 -0.89136,-1.07402 -10.6806,-1.32997 -50.867148,-1.32997 -57.510887,0 -57.514235,-5.7e-4 -63.1110265,-10.71405 -1.4783835,-2.82995 -2.9563388,-4.877 -3.2843451,-4.54899 C 0.96304403,370.78945 0.80258203,319.34532 0.93446803,256.14116 1.1588528,148.60853 1.2077004,145.72238 1.6946752,211.22449 l 0.5204144,70 0.2562432,-69.5 c 0.3472151,-94.17399 -9.495348,-83.32843 76.2317112,-84 35.104286,-0.275 64.200746,-0.87533 64.658806,-1.33407 0.45806,-0.45874 0.70305,-20.59887 0.54444,-44.755834 -0.21855,-33.283528 0.0188,-44.949735 0.97983,-48.165928 1.61871,-5.417048 8.34176,-12.243187 13.45727,-13.663621 7.73951,-2.149043 312.06099,-1.395649 316.85987,0.784435 5.04149,2.290303 10.06619,7.941976 11.43129,12.857684 1.19527,4.304126 1.47694,53.906561 0.31013,54.614076 -0.4125,0.250127 -51.33114,0.788177 -113.15254,1.195666 l -112.40255,0.74089 0.63183,17.469042 c 0.63182,17.46904 0.63182,17.46904 5.18607,21.47785 7.99845,7.04052 7.92329,6.70154 8.48719,38.27981 0.5,28 0.5,28 6,28.6511 3.025,0.35811 25.975,0.7025 51,0.76532 25.025,0.0628 46.05844,0.46886 46.74098,0.90233 0.9567,0.60759 1.30031,12.80251 1.5,53.23469 l 0.25902,52.44656 h 27.5 27.5 l 24.5,-13.88279 c 29.44039,-16.68223 27,-14.03604 27,-29.27695 0,-14.18268 -0.95939,-13.61606 11,-6.49673 13.17716,7.84426 15.21236,11.39629 11.85287,20.68681 -1.35156,3.73766 -0.68123,3.28777 -20.88887,14.0194 -8.72217,4.63206 -19.36972,10.507 -23.66124,13.05542 -4.29152,2.54843 -24.00276,13.74211 -43.80276,24.87485 -59.70977,33.5724 -76.05185,43.07933 -83.76273,48.72856 -1.55101,1.13632 8.53821,7.30377 84,51.34843 94.45593,55.13095 89.37394,51.59209 83.72678,58.30335 -3.84905,4.57434 1.17306,7.17903 -95.14025,-49.34412 z m -265.814,-104.0459 c 37.01587,-6.45503 57.98194,-34.4652 57.98781,-77.47033 0.007,-47.95892 -26.50622,-76.49438 -70.99761,-76.41412 -45.103343,0.0814 -73.63989,30.17632 -73.879514,77.91412 -0.262606,52.31611 36.784688,84.70784 86.889314,75.97033 z m -21.4645,-27.50652 c -38.808611,-8.09685 -43.096182,-81.14392 -5.57093,-94.91168 24.8385,-9.11308 46.08402,4.99948 51.10627,33.94787 6.69286,38.57781 -14.81507,67.37315 -45.53534,60.96381 z"
       id="path18" />
    <path
       style="fill:#0876d2"
       d="m 121.36135,400.05782 c -0.36667,-0.36666 -0.66667,-3.50083 -0.66667,-6.96481 0,-8.89524 3.36569,-8.36852 -53.474102,-8.36852 -46.793198,0 -49.815926,-0.10787 -53.315741,-1.90268 -9.2692718,-4.75356 -11.218219,-9.68797 -11.1836783,-28.3152 0.026483,-14.28212 0.026483,-14.28212 10.7500003,-20.34293 5.897934,-3.33345 20.732153,-11.83655 32.964931,-18.89578 22.241415,-12.83496 22.241415,-12.83496 24.413376,-9.93918 28.588303,38.11543 93.544884,37.12472 119.998674,-1.83021 11.90146,-17.52568 16.90936,-45.59016 12.36938,-69.3185 -1.83961,-9.61476 -5.23964,-6.49239 27.79689,-25.52678 l 28.37204,-16.3469 0.65355,-24.54092 c 1.13494,-42.61749 3.01536,-41.42673 -66.05173,-41.82676 l -49.35159,-0.28585 0.279,-45.714155 c 0.31667,-51.885711 0.12795,-50.656085 8.70408,-56.714155 5.91626,-4.179179 313.92617,-5.383356 322.08101,-1.259188 9.81497,4.963751 10.45392,7.224894 10.78829,38.177989 l 0.29438,27.251314 -78.79438,0.664244 c -43.33691,0.365335 -93.70178,0.664559 -111.92194,0.664943 -40.08579,8.45e-4 -35.89708,-2.428202 -34.98106,20.285638 0.69426,17.21506 0.69426,17.21506 5.10533,21.71506 7.32942,7.47718 7.50329,8.36722 7.50329,38.40886 0,20.08034 0.30185,26.66847 1.25,27.28212 0.6875,0.44496 24.65,1.03402 53.25,1.30902 l 52,0.5 0.25883,52.73316 c 0.25883,52.73317 0.25883,52.73317 2.62935,53.32813 1.30379,0.32723 13.56231,0.44022 27.24117,0.25109 29.08762,-0.40218 23.85602,1.14177 54.60467,-16.11489 25.04223,-14.05411 23.76598,-12.53187 23.76598,-28.34671 0,-12.16705 -0.44639,-11.92134 10.40174,-5.72552 12.90936,7.37309 15.25332,11.45342 11.41666,19.87396 -1.26827,2.78356 -18.94721,13.50078 -22.27065,13.50078 -2.31208,0 -24.80207,12.42391 -28.9408,15.98747 -1.70882,1.47134 -13.00695,8.2264 -25.10695,15.01125 -47.09722,26.40888 -88.4845,49.99737 -99,56.4246 -13.31859,8.14053 -13.4311,8.13883 -28.07831,-0.42249 -14.59451,-8.53052 -30.53928,-17.00083 -32.0029,-17.00083 -0.90133,0 -1.32338,3.81848 -1.57503,14.25 -0.50306,20.8533 -4.5872,26.25875 -21.02684,27.8295 -10.08069,0.96318 -130.20841,1.19568 -131.15025,0.25383 z M 1.086396,357.72449 c 0,-7.425 0.1574233,-10.4625 0.3498295,-6.75 0.1924062,3.7125 0.1924062,9.7875 0,13.5 -0.1924062,3.7125 -0.3498295,0.675 -0.3498295,-6.75 z m 121.938274,-54.9597 c -7.74188,-1.84383 -16.27305,-8.00615 -20.77563,-15.00685 -2.22955,-3.46656 -2.22955,-3.46656 31.85804,-23.14482 22.77856,-13.14973 34.33134,-19.29846 34.82229,-18.53345 1.33156,2.0749 0.79571,17.6154 -0.86021,24.94741 -5.28114,23.38359 -24.18785,36.70499 -45.04449,31.73771 z"
       id="path16" />
    <path
       style="fill:#0563b2"
       d="m 121.21227,399.47449 c -0.23081,-0.6875 -0.55419,-3.99393 -0.71862,-7.34762 -0.33344,-6.80069 6.60751,-7.40238 85.39228,-7.40238 31.86633,0 31.86633,0 41.75172,-5.66394 5.99495,-3.43488 10.31377,-6.60412 10.97386,-8.05287 3.00393,-6.5929 3.32133,-227.43658 0.33527,-233.27536 -6.60842,-12.92174 -8.99911,-13.43892 -64.7521,-14.00783 -49,-0.5 -49,-0.5 -49,-5 0,-4.5 0,-4.5 57.5,-4.5 h 57.5 l 0.50961,5.72159 c 0.46103,5.17621 0.95707,6.17707 5.20389,10.5 7.64167,7.77862 7.7865,8.49705 7.7865,38.62385 0,29.40842 -0.26557,28.3175 7.01962,28.83581 4.48038,0.31875 4.48038,0.31875 4.7393,52.56875 0.14241,28.7375 0.36741,52.35135 0.5,52.47523 0.13259,0.12387 21.39108,0.46137 47.24108,0.75 l 47,0.52477 0.27822,13.75 c 0.34349,16.97591 -2.17773,16.89087 26.21188,0.88411 12.55043,-7.07624 25.79657,-14.01662 29.43588,-15.42308 3.63931,-1.40645 16.50008,-8.1043 28.57949,-14.88411 25.29992,-14.20007 23.99453,-12.65087 23.99453,-28.47614 0,-12.16705 -0.44639,-11.92134 10.40174,-5.72552 13.28281,7.58638 16.26413,13.44462 10.54332,20.71746 -2.15605,2.74097 -16.71946,11.1586 -21.85257,12.63075 -3.51971,1.00945 -22.12771,11.21957 -26.89338,14.75628 -1.81549,1.34731 -20.26549,12.01993 -41,23.71694 -77.80373,43.89157 -86.78296,49.07095 -87.73087,50.60469 -3.95769,6.40368 -11.69401,5.75404 -25.15179,-2.11207 -14.50088,-8.47579 -30.43815,-16.93931 -31.89766,-16.93931 -0.90133,0 -1.32338,3.81848 -1.57503,14.25 -0.50306,20.8533 -4.5872,26.25875 -21.02684,27.8295 -14.7341,1.4078 -130.81389,1.11649 -131.29933,-0.3295 z M 144.89861,61.639635 c 0.33735,-31.237638 0.67676,-32.732691 8.72115,-38.415145 5.91626,-4.179179 313.92617,-5.383356 322.08101,-1.259188 9.824,4.968318 10.45385,7.206709 10.78913,38.342932 l 0.29523,27.416256 h -82.37982 c -45.3089,0 -122.29999,0.299315 -171.0913,0.665145 l -88.71147,0.665146 z"
       id="path15" />
    <path
       style="fill:#0a4a72"
       d="m 121.36135,399.05782 c -0.36667,-0.36666 -0.66667,-3.05063 -0.66667,-5.96437 0,-5.29771 0,-5.29771 62.75,-5.58334 62.52537,-0.2846 62.76476,-0.29352 66.87421,-2.49177 9.66474,-5.16993 13.80752,-13.66774 12.99398,-26.65372 -0.77233,-12.32809 -0.75455,-109.04798 0.0308,-167.64996 0.72589,-54.16399 1.04692,-51.84506 -8.40881,-60.74017 -6.38241,-6.00401 0.50897,-6.527 8.09787,-0.61455 10.33389,8.05107 9.48737,-0.98144 10.65164,113.6548 1.05949,104.31979 0.73796,99.50984 6.86064,102.6334 2.08091,1.06159 4.36773,2.63416 5.08182,3.4946 1.77753,2.14178 32.41738,19.58175 34.40271,19.58175 0.87761,0 14.38253,-7.2 30.01092,-16 15.62839,-8.8 29.14402,-16 30.03474,-16 1.7201,0 2.34423,6.31928 0.85417,8.64839 -0.63033,0.98526 -43.77072,26.01563 -54.40402,31.56561 -5.92989,3.09506 -8.41539,2.54739 -20.48433,-4.51368 -13.84428,-8.09976 -29.03941,-15.70032 -31.38826,-15.70032 -1.59515,0 -1.80461,1.41168 -2.11432,14.25 -0.49659,20.58504 -4.03505,24.9643 -22.10107,27.35259 -10.82934,1.43162 -127.71343,2.09334 -129.07602,0.73074 z M 488.04794,278.07361 c 0.35571,-4.20798 0.64674,-12.30798 0.64674,-18 0,-12.16519 -0.44627,-11.91961 10.40174,-5.72386 17.65217,10.08191 17.82893,16.51438 0.7228,26.30347 -12.25585,7.01348 -12.57625,6.94327 -11.77128,-2.57961 z"
       id="path14" />
    <path
       style="fill:#052f68"
       d="m 267.48563,351.80687 c -4.68678,-2.97227 -4.68678,-2.97227 -4.15646,-24.27732 0.63127,-25.3609 0.33917,-24.01031 5.10747,-23.6159 3.75804,0.31084 3.75804,0.31084 4.25804,18.81084 0.33936,12.55643 0.91947,19.23514 1.80563,20.78821 1.74511,3.05842 1.184,10.60188 -0.81677,10.98049 -0.83112,0.15727 -3.62018,-1.05157 -6.19791,-2.68632 z m 222.20905,-84.08238 c 0,-9.35 0.31132,-17 0.69183,-17 1.18068,0 14.68402,8.16307 17.05817,10.31203 1.2375,1.12013 2.25689,1.62066 2.26531,1.11228 0.008,-0.50837 0.45153,-0.24931 0.98469,0.57569 1.83963,2.84663 0.90474,11.67719 -1.10478,10.43524 -0.49237,-0.3043 -0.89522,-0.11053 -0.89522,0.43059 0,0.89549 -16.89134,11.13417 -18.36867,11.13417 -0.34723,0 -0.63133,-7.65 -0.63133,-17 z"
       id="path13" />
  </g>
</svg>
