<?xml version="1.0" encoding="UTF-8" standalone="no"?>
<!-- Created with Inkscape (http://www.inkscape.org/) -->

<svg
   width="184.76903mm"
   height="184.76903mm"
   viewBox="0 0 184.76903 184.76903"
   version="1.1"
   id="svg1"
   inkscape:version="1.4.2 (ebf0e940, 2025-05-08)"
   sodipodi:docname="source.svg"
   inkscape:export-filename="apple-touch-icon.png"
   inkscape:export-xdpi="24.744406"
   inkscape:export-ydpi="24.744406"
   xmlns:inkscape="http://www.inkscape.org/namespaces/inkscape"
   xmlns:sodipodi="http://sodipodi.sourceforge.net/DTD/sodipodi-0.dtd"
   xmlns:xlink="http://www.w3.org/1999/xlink"
   xmlns="http://www.w3.org/2000/svg"
   xmlns:svg="http://www.w3.org/2000/svg">
  <sodipodi:namedview
     id="namedview1"
     pagecolor="#ffffff"
     bordercolor="#000000"
     borderopacity="0.25"
     inkscape:showpageshadow="2"
     inkscape:pageopacity="0.0"
     inkscape:pagecheckerboard="0"
     inkscape:deskcolor="#d1d1d1"
     inkscape:document-units="mm"
     inkscape:zoom="0.52410024"
     inkscape:cx="265.21644"
     inkscape:cy="279.52668"
     inkscape:window-width="1512"
     inkscape:window-height="856"
     inkscape:window-x="0"
     inkscape:window-y="38"
     inkscape:window-maximized="1"
     inkscape:current-layer="layer1"
     showgrid="false" />
  <defs
     id="defs1">
    <linearGradient
       id="linearGradient1"
       inkscape:collect="always">
      <stop
         style="stop-color:#348799;stop-opacity:0;"
         offset="0"
         id="stop1" />
      <stop
         style="stop-color:#21505f;stop-opacity:0.2532751;"
         offset="1"
         id="stop2" />
    </linearGradient>
    <clipPath
       clipPathUnits="userSpaceOnUse"
       id="clipPath43">
      <path
         d="m 627.888,4843.826 c 0,-17.458 14.202,-31.661 31.657,-31.661 v 0 c 17.461,0 31.666,14.203 31.666,31.661 v 0 c 0,17.461 -14.205,31.665 -31.666,31.665 v 0 c -17.455,0 -31.657,-14.204 -31.657,-31.665 m 2,0 c 0,16.357 13.305,29.664 29.657,29.664 v 0 c 16.358,0 29.666,-13.307 29.666,-29.664 v 0 c 0,-16.355 -13.308,-29.661 -29.666,-29.661 v 0 c -16.352,0 -29.657,13.306 -29.657,29.661"
         transform="matrix(1.3333333,0,0,-1.3333333,0,7559.0533)"
         id="path43" />
    </clipPath>
    <mask
       maskUnits="userSpaceOnUse"
       x="0"
       y="0"
       width="1"
       height="1"
       id="mask37">
      <path
         id="path39"
         d="M -32768,32767 H 32767 V -32768 H -32768 Z"
         style="fill:url(#radialGradient39);stroke:none" />
    </mask>
    <radialGradient
       fx="0"
       fy="0"
       cx="0"
       cy="0"
       r="1"
       gradientUnits="userSpaceOnUse"
       gradientTransform="matrix(-902.62573,902.62573,902.62573,902.62573,1461.4165,4626.6782)"
       spreadMethod="pad"
       id="radialGradient39">
      <stop
         style="stop-opacity:0;stop-color:#ffffff"
         offset="0"
         id="stop37" />
      <stop
         style="stop-opacity:1;stop-color:#ffffff"
         offset="0.53925798"
         id="stop38" />
      <stop
         style="stop-opacity:1;stop-color:#ffffff"
         offset="1"
         id="stop39" />
    </radialGradient>
    <radialGradient
       fx="0"
       fy="0"
       cx="0"
       cy="0"
       r="1"
       gradientUnits="userSpaceOnUse"
       gradientTransform="matrix(-902.62573,902.62573,902.62573,902.62573,1461.4165,4626.6782)"
       spreadMethod="pad"
       id="radialGradient42">
      <stop
         style="stop-opacity:1;stop-color:#ffffff"
         offset="0"
         id="stop40" />
      <stop
         style="stop-opacity:1;stop-color:#c7c6c5"
         offset="0.53925798"
         id="stop41" />
      <stop
         style="stop-opacity:1;stop-color:#c7c6c5"
         offset="1"
         id="stop42" />
    </radialGradient>
    <clipPath
       clipPathUnits="userSpaceOnUse"
       id="clipPath158">
      <path
         d="M 0,5669.29 H 2409.45 V 0 H 0 Z"
         transform="translate(-1003.6227,-4534.253)"
         id="path158" />
    </clipPath>
    <clipPath
       clipPathUnits="userSpaceOnUse"
       id="clipPath160">
      <path
         d="M 0,5669.29 H 2409.45 V 0 H 0 Z"
         transform="translate(-1115.0829,-4257.9845)"
         id="path160" />
    </clipPath>
    <clipPath
       clipPathUnits="userSpaceOnUse"
       id="clipPath162">
      <path
         d="M 0,5669.29 H 2409.45 V 0 H 0 Z"
         transform="translate(-790.37492,-4375.8546)"
         id="path162" />
    </clipPath>
    <clipPath
       clipPathUnits="userSpaceOnUse"
       id="clipPath164">
      <path
         d="M 0,5669.29 H 2409.45 V 0 H 0 Z"
         transform="translate(-221.4505,-4789.7047)"
         id="path164" />
    </clipPath>
    <clipPath
       clipPathUnits="userSpaceOnUse"
       id="clipPath166">
      <path
         d="M 0,5669.29 H 2409.45 V 0 H 0 Z"
         transform="translate(-538.05121,-4232.5475)"
         id="path166" />
    </clipPath>
    <clipPath
       clipPathUnits="userSpaceOnUse"
       id="clipPath168">
      <path
         d="M 0,5669.29 H 2409.45 V 0 H 0 Z"
         transform="translate(-687.21172,-4240.6461)"
         id="path168" />
    </clipPath>
    <clipPath
       clipPathUnits="userSpaceOnUse"
       id="clipPath170">
      <path
         d="M 0,5669.29 H 2409.45 V 0 H 0 Z"
         transform="translate(-898.9885,-4599.4957)"
         id="path170" />
    </clipPath>
    <clipPath
       clipPathUnits="userSpaceOnUse"
       id="clipPath172">
      <path
         d="M 0,5669.29 H 2409.45 V 0 H 0 Z"
         transform="translate(-1027.8174,-4818.8805)"
         id="path172" />
    </clipPath>
    <clipPath
       clipPathUnits="userSpaceOnUse"
       id="clipPath174">
      <path
         d="M 0,5669.29 H 2409.45 V 0 H 0 Z"
         transform="translate(-725.64862,-4814.6002)"
         id="path174" />
    </clipPath>
    <clipPath
       clipPathUnits="userSpaceOnUse"
       id="clipPath176">
      <path
         d="M 0,5669.29 H 2409.45 V 0 H 0 Z"
         transform="translate(-1087.6003,-4281.9605)"
         id="path176" />
    </clipPath>
    <clipPath
       clipPathUnits="userSpaceOnUse"
       id="clipPath178">
      <path
         d="M 0,5669.29 H 2409.45 V 0 H 0 Z"
         transform="translate(-751.77842,-4714.9342)"
         id="path178" />
    </clipPath>
    <clipPath
       clipPathUnits="userSpaceOnUse"
       id="clipPath180">
      <path
         d="M 0,5669.29 H 2409.45 V 0 H 0 Z"
         transform="translate(-883.44925,-4496.6075)"
         id="path180" />
    </clipPath>
    <clipPath
       clipPathUnits="userSpaceOnUse"
       id="clipPath182">
      <path
         d="M 0,5669.29 H 2409.45 V 0 H 0 Z"
         transform="translate(-323.15641,-4783.9557)"
         id="path182" />
    </clipPath>
    <clipPath
       clipPathUnits="userSpaceOnUse"
       id="clipPath184">
      <path
         d="M 0,5669.29 H 2409.45 V 0 H 0 Z"
         transform="translate(-290.63751,-4384.3043)"
         id="path184" />
    </clipPath>
    <clipPath
       clipPathUnits="userSpaceOnUse"
       id="clipPath186">
      <path
         d="M 0,5669.29 H 2409.45 V 0 H 0 Z"
         transform="translate(-967.0801,-4282.8316)"
         id="path186" />
    </clipPath>
    <clipPath
       clipPathUnits="userSpaceOnUse"
       id="clipPath188">
      <path
         d="M 0,5669.29 H 2409.45 V 0 H 0 Z"
         transform="translate(-541.79621,-4641.6192)"
         id="path188" />
    </clipPath>
    <clipPath
       clipPathUnits="userSpaceOnUse"
       id="clipPath190">
      <path
         d="M 0,5669.29 H 2409.45 V 0 H 0 Z"
         transform="translate(-150.4053,-4552.2345)"
         id="path190" />
    </clipPath>
    <clipPath
       clipPathUnits="userSpaceOnUse"
       id="clipPath192">
      <path
         d="M 0,5669.29 H 2409.45 V 0 H 0 Z"
         transform="translate(-1039.3017,-4361.0074)"
         id="path192" />
    </clipPath>
    <clipPath
       clipPathUnits="userSpaceOnUse"
       id="clipPath194">
      <path
         d="M 0,5669.29 H 2409.45 V 0 H 0 Z"
         transform="translate(-540.88981,-4789.7047)"
         id="path194" />
    </clipPath>
    <clipPath
       clipPathUnits="userSpaceOnUse"
       id="clipPath196">
      <path
         d="M 0,5669.29 H 2409.45 V 0 H 0 Z"
         transform="translate(-880.2139,-4789.7047)"
         id="path196" />
    </clipPath>
    <clipPath
       clipPathUnits="userSpaceOnUse"
       id="clipPath198">
      <path
         d="M 0,5669.29 H 2409.45 V 0 H 0 Z"
         transform="translate(-1073.881,-4327.8233)"
         id="path198" />
    </clipPath>
    <clipPath
       clipPathUnits="userSpaceOnUse"
       id="clipPath200">
      <path
         d="M 0,5669.29 H 2409.45 V 0 H 0 Z"
         transform="translate(-1001.0086,-4780.5445)"
         id="path200" />
    </clipPath>
    <clipPath
       clipPathUnits="userSpaceOnUse"
       id="clipPath202">
      <path
         d="M 0,5669.29 H 2409.45 V 0 H 0 Z"
         transform="translate(-1122.8172,-4518.919)"
         id="path202" />
    </clipPath>
    <clipPath
       clipPathUnits="userSpaceOnUse"
       id="clipPath204">
      <path
         d="M 0,5669.29 H 2409.45 V 0 H 0 Z"
         transform="translate(-426.13601,-4651.463)"
         id="path204" />
    </clipPath>
    <clipPath
       clipPathUnits="userSpaceOnUse"
       id="clipPath206">
      <path
         d="M 0,5669.29 H 2409.45 V 0 H 0 Z"
         transform="translate(-841.2814,-4239.1134)"
         id="path206" />
    </clipPath>
    <clipPath
       clipPathUnits="userSpaceOnUse"
       id="clipPath208">
      <path
         d="M 0,5669.29 H 2409.45 V 0 H 0 Z"
         transform="translate(-529.20731,-4538.4684)"
         id="path208" />
    </clipPath>
    <clipPath
       clipPathUnits="userSpaceOnUse"
       id="clipPath210">
      <path
         d="M 0,5669.29 H 2409.45 V 0 H 0 Z"
         transform="translate(-670.12952,-4419.6695)"
         id="path210" />
    </clipPath>
    <clipPath
       clipPathUnits="userSpaceOnUse"
       id="clipPath212">
      <path
         d="M 0,5669.29 H 2409.45 V 0 H 0 Z"
         transform="translate(-522.59251,-4369.0221)"
         id="path212" />
    </clipPath>
    <clipPath
       clipPathUnits="userSpaceOnUse"
       id="clipPath214">
      <path
         d="M 0,5669.29 H 2409.45 V 0 H 0 Z"
         transform="translate(-207.45951,-4451.5782)"
         id="path214" />
    </clipPath>
    <radialGradient
       inkscape:collect="always"
       xlink:href="#linearGradient1"
       id="radialGradient2"
       cx="108.53919"
       cy="123.6842"
       fx="108.53919"
       fy="123.6842"
       r="92.384514"
       gradientUnits="userSpaceOnUse" />
  </defs>
  <g
     inkscape:label="Layer 1"
     inkscape:groupmode="layer"
     id="layer1"
     transform="translate(-16.154678,-31.299683)">
    <circle
       style="fill:#348799;fill-opacity:1;stroke-width:2;stroke-linecap:round;stroke-linejoin:round;paint-order:stroke fill markers"
       id="path1"
       cx="108.53919"
       cy="123.6842"
       r="92.384514" />
    <circle
       style="fill:url(#radialGradient2);stroke-width:2;stroke-linecap:round;stroke-linejoin:round;paint-order:stroke fill markers"
       id="circle1"
       cx="108.53919"
       cy="123.6842"
       r="92.384514" />
    <path
       id="path157"
       d="m 0,0 c -2.966,2.326 -5.171,4.431 -7.724,5.953 -2.771,1.651 -5.843,2.81 -8.823,4.093 C -26.546,14.353 -39.532,8.988 -44.101,-1.301 -37.528,-4.479 -11.158,-3.89 0,0 m 31.897,-30.847 c -4.549,-1.851 -8.913,-3.726 -13.349,-5.412 -10.779,-4.095 -21.381,-8.891 -32.902,-10.514 -11.937,-1.682 -23.861,-2.362 -35.161,3.472 -6.99,3.609 -13.073,8.346 -15.561,15.857 -1.883,5.681 -2.967,11.955 -2.8,17.92 0.364,12.973 3.411,25.433 10.906,36.376 6.717,9.808 15.15,18.019 25.012,24.529 2.866,1.892 7.304,2.9 10.636,2.27 15.512,-2.934 29.882,-9.736 42.294,-19.44 1.64,-1.281 19.073,-17.639 18.27,-18.168 7.876,5.182 15.771,9.623 22.68,16.457 -1.563,2.675 -2.933,5.087 -4.365,7.462 -7.314,12.135 -15.663,23.774 -21.74,36.499 -10.085,21.12 -16.083,43.339 -10.904,67.168 1.018,4.684 1.636,9.455 2.471,14.18 0.303,1.718 0.4,3.566 1.141,5.086 0.771,1.578 2.106,3.881 3.373,4.002 2.427,0.232 2.536,-2.342 2.83,-4.311 0.803,-5.372 1.748,-10.724 2.524,-16.102 3.831,-26.542 20.257,-45.018 32.467,-67.67 C 76.27,66.663 80.288,53.734 79.015,39.467 77.754,25.328 72.476,12.407 67.794,-0.68 c -1.152,-3.218 -4.359,-5.872 -7.033,-8.339 -4.695,-4.33 -4.886,-4.341 -2.976,-9.956 3.047,-8.956 4.015,-18.168 3.682,-27.59 -0.184,-5.196 -0.129,-10.409 0.062,-15.605 0.262,-7.086 -2.303,-13.513 -4.497,-19.995 -1.727,-5.102 -3.904,-10.061 -6.071,-15.001 -1.468,-3.348 -3.613,-6.14 -6.115,-8.988 -9.365,-10.663 -21.487,-17.606 -32.695,-25.788 -44.752,-32.668 -93.702,-63.67 -144.425,-87.428 -7.629,-3.573 -15.808,-6.812 -24.605,-8.048 -18.892,-2.656 -38.386,-10.95 -56.566,-16.59 -24.591,-9.837 -51.038,-15.396 -75.881,-24.725 -4.07,-1.528 -8.182,-2.955 -12.33,-4.256 -0.839,-0.263 -1.92,0.246 -3.448,0.488 0.801,0.956 1.076,1.607 1.536,1.788 13.855,5.441 27.591,11.148 40.869,17.906 88.727,45.166 181.442,84.467 263.527,141.542 8.218,5.714 16.675,11.083 24.913,16.768 3.575,2.467 6.868,5.342 10.294,8.026 1.88,1.472 3.874,2.819 5.629,4.427 2.196,2.014 4.188,4.251 6.291,6.37 2.682,2.703 0.416,5.238 -0.197,7.861 -2.78,11.891 -6.853,23.275 -13.19,33.77 -0.653,1.081 -1.63,1.966 -2.671,3.196"
       style="fill:#f9f9f9;fill-opacity:1;fill-rule:nonzero;stroke:none"
       transform="matrix(0.15504734,0,0,-0.15504734,164.34599,117.58708)"
       clip-path="url(#clipPath158)" />
    <path
       id="path159"
       d="m 0,0 c 2.733,8.185 6.431,15.471 10.898,22.539 38.641,61.132 48.651,127.313 29.472,197.273 -21.265,77.574 -60.525,147.655 -76.464,226.947 -4.424,22.01 -5.082,44.15 2.256,65.911 3.89,11.537 7.519,23.162 11.331,34.725 0.732,2.223 1.486,4.655 5.195,4.397 1.823,-4.815 0.917,-9.849 0.644,-14.696 -0.243,-4.314 -1.19,-8.659 -2.378,-12.834 -7.445,-26.162 2.553,-57.705 9.032,-83.315 C 13.623,347.521 65.944,261.753 66.317,162.646 66.535,104.66 39.544,56.482 11.432,7.794 9.919,5.174 7.916,2.83 6.066,0.414 4.466,-1.677 2.536,-1.904 0,0"
       style="fill:#f9f9f9;fill-opacity:1;fill-rule:nonzero;stroke:none"
       transform="matrix(0.15504734,0,0,-0.15504734,181.6276,160.42178)"
       clip-path="url(#clipPath160)" />
    <path
       id="path161"
       d="m 0,0 c -13.952,-4.775 -29.372,-8.153 -44.176,-6.447 -9.007,1.057 -22.243,4.435 -27.087,13.031 -3.309,5.834 -0.035,11.19 -0.443,17.262 -0.273,3.889 -2.014,8.562 -6.209,4.639 -11.872,-11.087 -15.761,-29.235 -25.824,-41.994 -9.45,-11.974 -23.095,-20.366 -38.651,-15.215 -6.891,2.32 -13.919,5.834 -20.059,9.757 -1.194,0.785 -2.422,1.637 -3.206,2.831 -1.161,1.843 -1.161,4.162 -0.785,6.312 1.398,7.3 2.967,14.532 4.128,21.901 0.306,2.114 0.478,4.366 0.033,6.447 -0.784,3.992 -3.753,5.049 -6.515,2.047 -3.651,-3.991 -6.994,-8.323 -9.962,-12.827 -5.833,-8.937 -11.222,-18.148 -16.921,-27.188 -22.923,-36.434 -79.109,-37.457 -107.218,-6.823 -2.457,2.661 -1.809,4.912 -0.308,7.607 4.332,7.812 9.041,15.488 12.519,23.675 26.712,62.531 87.572,90.231 144.541,119.024 19.241,9.722 38.788,18.83 58.233,28.211 5.594,2.695 11.224,5.288 17.465,7.096 -2.796,-4.059 -5.662,-8.085 -8.357,-12.212 -4.059,-6.243 -7.3,-12.896 -8.87,-20.23 -1.33,-6.175 1.16,-12.008 5.902,-14.703 4.333,-2.456 6.959,-2.286 10.609,0.955 1.298,1.159 2.559,2.49 3.343,3.991 1.809,3.412 3.31,6.994 4.196,11.292 -1.364,-0.785 -2.728,-1.535 -4.059,-2.354 -3.923,-2.354 -5.391,-2.286 -8.734,0.546 -4.366,3.65 -5.798,9.074 -3.001,14.089 3.922,7.028 8.29,13.816 12.622,20.639 0.75,1.194 2.218,2.047 3.513,2.797 26.337,14.942 52.672,29.85 79.009,44.757 0.546,0.308 1.227,0.308 2.388,0.58 0.512,-1.296 1.193,-2.558 1.534,-3.923 1.4,-5.253 2.731,-10.541 4.026,-15.862 1.365,-5.562 0.818,-6.653 -4.23,-9.245 -6.175,-3.207 -12.758,-5.766 -18.32,-9.791 -12.041,-8.631 -23.776,-17.739 -30.394,-31.692 -0.853,-1.74 -1.706,-3.514 -2.73,-5.185 -8.972,-14.601 -9.858,-30.498 -8.972,-47.179 1.126,-21.39 12.145,-37.082 27.428,-49.909 C -4.502,29.133 5.595,22.345 17.127,18.422 22.039,16.75 26.746,14.43 31.863,12.281 20.913,8.017 10.576,3.65 0,0 m -304.329,-74.845 c -27.7,-7.267 -56.696,-13.339 -85.285,-15.658 -16.476,-1.331 -32.988,-2.389 -49.498,-2.968 -8.017,-0.308 -16.068,0.921 -24.118,1.159 -55.163,1.604 -104.287,17.842 -141.232,59.666 -33.295,37.661 -31.658,99.919 -12.895,143.243 7.471,17.16 17.193,32.886 31.112,45.542 9.006,8.188 18.66,15.693 28.109,23.403 1.638,1.364 3.65,2.285 5.459,3.377 9.722,-10.507 18.865,-20.366 28.212,-30.464 -3.48,-5.117 -6.96,-10.609 -10.78,-15.829 -4.674,-6.481 -7.471,-13.782 -9.62,-21.321 -2.32,-8.187 -5.117,-16.306 -6.345,-24.664 -1.263,-8.563 -0.888,-17.364 -1.16,-26.063 -0.068,-2.593 0.171,-5.219 0.171,-7.812 -0.103,-8.358 1.125,-16.443 5.56,-23.744 0.819,-1.33 2.217,-2.933 3.616,-3.241 4.333,-0.954 4.469,-3.82 4.537,-7.368 0.375,-17.022 1.638,-33.909 6.174,-50.489 5.698,-20.74 15.796,-47.759 41.346,-47.554 9.518,0.068 18.696,3.48 27.258,7.642 16.477,7.982 30.259,16.749 44.859,27.632 13.85,-15.795 31.487,-23.061 51.614,-24.665 20.64,-1.671 38.003,5.356 51.922,21.117 5.595,-9.313 11.223,-18.66 17.158,-28.519 -1.84,-0.751 -3.956,-1.808 -6.174,-2.422 m -164.122,307.433 c -1.057,-4.673 -28.758,-45.2 -35.511,-52.057 -6.653,7.027 -17.603,8.767 -22.823,19.172 19.035,11.974 39.197,21.184 58.334,32.885 m -4.026,-128.097 c -15.144,-14.055 -33.021,-24.528 -54.104,-30.873 -0.784,7.198 3.276,12.588 3.105,18.626 -3.07,-2.081 -3.07,-2.081 -5.901,-8.221 -1.433,-3.139 -2.832,-6.312 -4.196,-9.381 -26.507,3.343 7.47,58.027 14.771,68.363 0.818,1.194 2.217,1.979 3.445,3.037 5.185,-2.149 8.837,-5.902 12.724,-9.348 3.821,-3.377 35.65,-27.086 30.156,-32.203 m 71.606,-129.974 c 10.098,7.813 18.661,17.023 26.233,27.257 3.89,5.254 8.187,10.166 12.214,15.351 7.027,9.006 9.824,19.752 12.041,30.703 0.24,1.194 0.376,2.422 1.366,3.718 7.402,-22.549 14.771,-45.132 22.344,-68.261 -6.482,-5.902 -12.588,-12.52 -19.752,-17.671 -17.637,-12.691 -36.706,-13.442 -56.288,-4.845 -2.524,1.092 -4.538,3.31 -7.334,5.459 3.173,2.899 6.005,5.867 9.176,8.289 m 608.83,128.337 c -31.59,-18.251 -63.861,-34.592 -96.236,-51.342 -8.8,-4.537 -17.91,-6.652 -27.699,-6.345 -1.944,0.068 -3.923,0.17 -5.869,0.239 -34.147,1.501 -68.501,18.66 -89.582,44.791 -5.322,6.618 -10.474,13.987 -11.223,23.061 18.557,17.057 45.269,33.977 54.478,34.182 0.99,-8.528 2.457,-17.125 2.867,-25.755 0.375,-8.393 -0.341,-16.853 -0.581,-25.245 3.31,5.254 6.415,10.541 8.085,16.272 3.991,13.373 6.858,27.053 8.052,41.005 0.203,2.388 0.137,4.981 2.832,6.107 6.003,2.558 11.94,5.322 18.113,7.368 10.064,3.309 20.435,3.582 30.976,2.969 12.076,-0.683 23.778,-2.457 34.761,-7.71 1.774,-0.853 2.867,-0.546 3.515,2.353 -6.823,3.378 -13.885,6.686 -20.741,10.303 -20.605,10.848 -44.86,13.577 -67.818,12.417 -2.354,-0.102 -4.573,-0.205 -5.221,2.559 -1.807,7.777 -3.444,15.556 -5.287,23.947 3.855,0.717 6.788,1.366 9.756,1.774 9.723,1.365 12.555,32.92 10.371,40.664 -10.064,0.375 -19.615,-3.207 -29.576,-3.957 -0.648,2.183 -1.195,3.821 -1.604,5.492 -2.934,11.838 -5.867,23.675 -8.699,35.547 -6.071,25.414 -11.803,50.931 -19.479,75.971 -4.026,13.203 -5.901,26.746 -5.458,40.664 0.205,6.243 -0.716,12.588 -1.331,18.865 -0.205,2.388 -0.818,4.844 -4.366,4.912 -0.716,-0.92 -1.809,-1.808 -2.184,-2.967 -3.206,-9.484 -7.437,-18.831 -9.006,-28.588 -1.501,-9.552 -0.477,-19.547 -0.102,-29.338 0.238,-6.277 0.58,-12.758 2.217,-18.762 7.334,-26.712 15.01,-53.321 20.947,-80.372 1.875,-8.461 4.162,-16.818 6.344,-25.62 -55.195,-9.62 -110.596,-12.077 -166.236,-18.694 4.844,14.054 5.8,27.7 6.618,41.379 0.171,2.491 0.171,5.015 0.103,7.506 -0.785,23.709 -10.098,46.19 -15.864,68.91 -0.613,2.354 -1.193,4.673 -1.739,7.027 -4.981,21.219 -8.324,42.949 -10.746,64.339 -0.546,4.776 -0.819,9.586 -1.637,14.294 -0.24,1.432 -1.911,2.592 -2.935,3.888 -1.056,-1.16 -2.729,-2.183 -3.103,-3.513 -1.298,-4.844 -1.843,-9.893 -3.275,-14.669 -3.004,-10.064 -3.242,-20.093 -1.4,-30.395 1.127,-6.346 1.468,-12.862 2.116,-19.105 l 1.534,-10.813 c 0.342,-1.535 0.546,-2.559 0.751,-3.549 1.604,-8.8 2.969,-17.636 4.912,-26.369 5.596,-25.313 11.394,-50.592 17.262,-75.835 0.785,-3.378 -0.068,-5.595 -3.07,-6.891 -4.605,-1.979 -9.176,-3.924 -13.885,-5.629 -16.784,-6.106 -33.772,-13.305 -51.171,-17.603 -4.844,-1.194 -8.015,-4.128 -10.029,-8.563 -4.877,-10.609 -10.984,-21.355 -13.509,-32.817 3.616,-1.774 6.516,-1.194 9.485,-0.307 41.789,12.827 89.48,11.94 132.94,16.546 14.943,1.569 29.885,3.274 44.826,4.912 6.345,0.682 12.656,1.398 19.001,2.08 -0.341,-1.296 -0.818,-1.671 -1.364,-1.91 -14.567,-6.89 -29.03,-13.918 -43.7,-20.57 -19.241,-8.699 -38.651,-17.057 -57.959,-25.62 -10.747,-4.742 -22.004,-8.665 -32.135,-14.498 -26.711,-15.317 -51.957,-29.065 -72.458,-52.672 -17.943,-20.673 -31.351,-44.826 -43.938,-69.046 -3.48,-6.687 -7.506,-12.929 -11.667,-19.991 -1.399,1.876 -2.492,2.798 -2.832,3.957 -4.162,13.066 -8.733,26.029 -12.179,39.265 -18.626,71.162 -51.921,134.784 -93.164,194.79 -1.263,1.808 -3.105,3.172 -5.595,5.663 -1.263,-4.162 -2.525,-6.959 -2.9,-9.859 -0.683,-5.185 -1.091,-10.439 -1.091,-15.659 -0.035,-8.05 0.271,-15.93 5.082,-23.163 8.119,-12.144 15.556,-24.698 23.267,-37.047 3.138,-5.015 6.309,-9.961 9.346,-15.01 14.635,-24.118 24.323,-50.523 35.376,-76.313 1.261,-2.968 1.296,-5.219 -0.546,-7.846 -8.938,-12.69 -18.353,-25.074 -30.429,-34.898 -11.838,-9.621 -24.29,-18.49 -36.468,-27.633 -0.478,-0.341 -1.229,-0.273 -2.012,-0.443 -3.14,17.602 1.671,34.83 1.398,52.331 -1.261,-1.263 -2.149,-2.627 -2.967,-4.06 -2.287,-4.094 -2.082,-8.665 -2.492,-13.134 -1.126,-11.462 -3.206,-22.924 -0.203,-34.421 0.613,-2.354 0.511,-4.878 -2.116,-6.311 -19.888,-10.643 -69.285,-38.139 -85.387,-8.426 -7.13,13.168 -10.984,27.427 -12.11,42.37 -0.137,1.876 0.205,3.786 0.306,5.594 1.877,0.819 3.242,1.433 4.64,2.013 11.053,4.707 21.697,10.132 31.18,17.568 4.641,3.651 9.075,7.574 13.817,11.053 6.276,4.606 9.961,10.815 12.211,18.081 9.69,31.214 10.474,70.069 -20.739,90.094 -1.774,1.16 -3.174,2.9 -4.983,4.572 0.752,1.774 1.263,3.411 2.116,4.878 4.504,7.709 9.245,15.283 13.577,23.095 5.459,9.928 10.882,19.854 15.693,30.088 1.979,4.196 4.537,7.164 8.495,9.313 32.067,17.399 65.498,32.988 95.995,53.15 4.231,2.797 9.45,4.093 14.703,6.277 0.683,-2.73 1.263,-4.811 1.706,-6.891 2.627,-12.349 5.049,-24.767 7.915,-37.082 4.606,-19.923 9.688,-39.777 14.226,-59.767 2.113,-9.314 3.206,-18.9 5.185,-28.247 4.877,-23.3 9.551,-46.565 9.415,-70.513 -0.034,-1.296 0.409,-2.559 0.751,-4.367 5.014,6.277 5.935,8.085 6.686,17.398 3.207,40.255 -0.511,75.734 -8.495,115.305 -4.093,20.298 -9.176,40.357 -13.815,60.553 -1.263,5.389 -2.491,10.814 -3.787,16.476 2.422,0.478 4.093,1.126 5.799,1.126 5.152,0.102 7.847,3.002 9.586,7.471 1.263,3.241 3.002,6.311 4.367,9.484 2.491,5.833 5.117,11.598 7.231,17.534 1.741,4.878 0.069,7.061 -5.082,7.164 -3.001,0.068 -6.073,-0.409 -9.108,-0.648 -6.448,-0.581 -12.861,-1.126 -19.104,-1.672 -3.411,13.202 -7.061,25.756 -9.859,38.481 -2.217,9.961 -3.718,20.127 -2.422,30.498 0.546,4.537 0.579,9.142 0.784,13.714 0.102,1.978 0.172,4.366 -2.184,4.912 -2.865,0.682 -3.376,-2.081 -4.264,-3.958 -0.375,-0.784 -0.375,-1.705 -0.579,-2.558 -1.193,-4.64 -2.218,-9.347 -3.617,-13.918 -6.038,-19.718 -5.117,-39.607 -1.91,-59.597 0.614,-3.787 1.297,-7.574 1.945,-11.531 -10.849,-1.603 -21.116,-3.514 -31.418,-4.571 -27.463,-2.832 -55.026,-4.742 -82.625,-5.425 -23.197,-0.545 -46.463,1.126 -69.694,0.648 -5.595,-0.102 -11.19,-0.34 -16.75,-0.75 -10.439,-0.784 -20.605,-3.24 -30.566,-6.481 -3.992,-1.467 -8.017,-2.866 -12.042,-4.162 -3.889,-1.433 -7.71,-2.9 -11.531,-4.366 -6.208,-2.389 -10.404,-5.766 -13.714,-10.337 -2.183,-4.674 -4.536,-9.382 -6.72,-14.192 -1.398,-5.083 -3.411,-12.724 -4.639,-17.125 3.07,-1.126 5.697,-0.58 8.324,0.204 22.787,6.994 41.3,9.389 65.965,11.367 6.708,0.21 7.413,2.313 8.335,2.927 1.5,0.99 3.411,1.058 5.219,1.092 17.671,0.444 35.342,0.853 53.012,1.126 12.043,0.205 24.085,0.341 36.126,0.375 5.187,0.034 24.188,-1.876 28.351,1.979 -0.478,-0.614 -1.06,-1.16 -1.741,-1.569 -39.196,-20.776 -78.598,-41.483 -116.498,-64.578 -5.356,-3.275 -6.755,-3.002 -9.689,2.559 -2.251,4.23 -4.025,8.699 -6.175,12.963 -2.558,5.083 -5.253,10.064 -8.016,14.976 -0.955,1.672 -2.081,3.48 -5.356,2.047 -0.887,-10.507 -2.286,-20.127 0.239,-30.464 0.989,-4.059 8.937,-21.833 5.458,-24.903 -3.821,-3.377 -7.948,-6.891 -11.94,-10.575 -12.008,-10.985 -21.458,-24.085 -30.532,-37.423 -6.959,-10.268 -12.997,-21.219 -16.511,-33.192 -7.027,-23.983 -11.053,-48.17 -11.633,-73.209 -1.058,-45.372 5.22,-96.747 37.628,-131.27 34.045,-36.263 85.659,-50.522 133.726,-48.749 14.84,0.58 29.68,-0.034 44.315,2.934 5.73,1.16 11.53,2.558 16.885,4.776 38.105,15.658 74.777,33.432 113.463,47.793 3.275,-2.388 6.174,-4.708 9.278,-6.686 3.652,-2.354 7.233,-5.015 11.224,-6.55 20.23,-7.744 39.061,-3.821 56.356,8.119 14.499,9.962 21.356,27.7 29.303,42.676 1.126,2.082 3.583,6.277 6.552,5.152 2.25,-0.853 2.898,-5.288 3.444,-7.266 1.263,-4.504 1.706,-9.245 3.515,-13.612 2.489,-6.072 6.856,-11.087 12.383,-14.635 10.779,-6.857 25.107,-7.778 36.706,-2.422 16.51,7.608 22.105,25.79 29.406,40.937 2.012,4.162 4.298,8.255 7.129,11.906 1.638,2.081 4.948,7.88 8.256,5.901 2.115,-1.228 1.945,-5.39 2.457,-7.47 0.989,-3.822 1.842,-7.744 4.4,-10.883 4.333,-5.356 10.541,-8.767 16.956,-10.984 4.672,-1.604 9.688,-2.252 14.565,-3.31 10.78,-2.319 21.424,-0.785 31.385,3.002 13.407,5.118 26.507,11.087 39.436,17.33 15.521,7.471 30.702,15.522 45.985,23.437 13.339,6.925 26.643,13.918 39.879,20.979 11.94,6.346 23.71,12.998 35.683,19.207 15.146,7.812 29.85,16.272 44.042,25.688 13.883,9.244 18.557,25.346 25.107,39.913 0.511,1.126 0.341,2.524 0.58,4.946 -4.981,-2.49 -8.904,-4.231 -12.622,-6.379"
       style="fill:#f9f9f9;fill-opacity:1;fill-rule:nonzero;stroke:none"
       transform="matrix(0.15504734,0,0,-0.15504734,131.2825,142.14633)"
       clip-path="url(#clipPath162)" />
    <path
       id="path165"
       d="m 0,0 c -4.691,-5.344 -8.847,-10.085 -13.011,-14.82 -5.288,-6.013 -11.043,-7.282 -19.217,-4.969 -11.759,3.326 -22.015,9.179 -32.411,15.044 -3.094,1.746 -3.516,3.331 -1.327,6.353 3.321,4.583 6.893,8.99 10.48,13.372 4.138,5.056 8.343,10.061 12.64,14.982 3.314,3.796 5.421,4.065 9.591,1.426 2.022,-1.28 3.909,-2.77 5.863,-4.158 4.085,-2.903 8.276,-5.264 13.322,-6.56 5.394,-1.385 10.403,-4.267 15.685,-6.54 3.923,3.869 7.798,7.608 11.574,11.444 3.057,3.103 5.931,6.387 9.001,9.477 3.467,3.49 4.087,3.283 8.402,1.118 C 38.357,32.274 46.264,28.661 54.141,24.992 64.284,20.267 65.144,18.295 59.174,8.855 55.003,2.259 50.115,-3.905 45.278,-10.05 42.05,-14.15 38.178,-15.36 32.612,-13.575 23.438,-10.633 14.636,-7.051 6.147,-2.568 4.255,-1.569 2.188,-0.903 0,0"
       style="fill:#f9f9f9;fill-opacity:1;fill-rule:nonzero;stroke:none"
       transform="matrix(0.15504734,0,0,-0.15504734,92.16038,164.36572)"
       clip-path="url(#clipPath166)" />
    <path
       id="path167"
       d="m 0,0 c -3.85,-6.073 -8.326,-11.708 -12.773,-17.343 -2.222,-2.848 -4.819,-4.195 -8.138,-3.944 -0.313,0 -0.626,0.062 -0.94,0.094 -0.123,0.031 -0.218,0.031 -0.218,0.031 -0.47,0.094 -0.846,0.157 -1.189,0.25 -0.753,0.095 -1.535,0.314 -2.348,0.533 -6.073,1.721 -11.74,4.163 -17.187,6.949 -4.257,2.16 -8.389,4.509 -12.553,6.856 -2.849,1.597 -3.225,3.068 -1.221,5.823 1.878,2.598 3.881,5.166 5.917,7.701 1.22,1.534 2.441,3.068 3.693,4.57 3.82,4.634 7.67,9.235 11.614,13.743 3.037,3.506 4.978,3.725 8.797,1.315 1.848,-1.158 3.569,-2.536 5.385,-3.82 0.313,-0.218 0.657,-0.469 0.97,-0.688 3.412,-2.348 7.012,-4.226 11.238,-5.322 0.094,-0.031 0.219,-0.062 0.314,-0.094 1.345,-0.594 2.661,-1.221 4.006,-1.847 C 4.696,10.456 5.478,8.64 0,0"
       style="fill:#f9f9f9;fill-opacity:1;fill-rule:nonzero;stroke:none"
       transform="matrix(0.15504734,0,0,-0.15504734,115.28732,163.11005)"
       clip-path="url(#clipPath168)" />
    <path
       id="path169"
       d="m 0,0 c 2.699,2.512 4.469,4.41 6.485,5.994 10.28,8.075 20.908,15.736 30.841,24.214 6.246,5.331 11.5,11.829 17.147,17.853 0.683,0.729 1.036,1.77 1.655,2.867 -0.871,0.434 -1.42,0.958 -1.928,0.922 C 46.622,51.312 39.057,50.533 31.472,50.147 21.575,49.644 12.777,46.417 4.879,40.48 2.89,38.985 0.622,37.861 -1.504,36.574 c -2.55,2.701 -1.895,5.043 -0.86,7.196 4.996,10.392 10.018,20.772 15.232,31.055 0.944,1.862 2.582,3.6 4.314,4.797 11,7.608 22.94,11.991 36.641,11.691 11.778,-0.257 23.434,1.41 34.511,5.851 1.811,0.726 3.946,2.18 5.292,0.169 0.89,-1.329 1.08,-3.888 0.416,-5.376 C 82.363,65.746 66.281,43.03 46.468,21.747 43.402,18.454 40.057,16.079 35.402,15.432 32.91,15.086 30.427,13.845 28.203,12.554 22.176,9.056 16.336,5.236 10.325,1.708 7.599,0.108 4.765,-1.685 0,0"
       style="fill:#f9f9f9;fill-opacity:1;fill-rule:nonzero;stroke:none"
       transform="matrix(0.15504734,0,0,-0.15504734,148.12274,107.47137)"
       clip-path="url(#clipPath170)" />
    <path
       id="path171"
       d="m 0,0 c 4.05,-8.468 0.728,-16.873 -6.902,-19.829 -6.676,-2.586 -13.329,-5.322 -19.725,-8.526 -20.639,-10.341 -41.251,-20.745 -61.69,-31.475 -17.546,-9.211 -35.064,-18.519 -52.18,-28.494 -15.241,-8.882 -29.935,-18.702 -44.805,-28.211 -1.604,-1.025 -2.704,-2.808 -4.166,-4.093 -1.193,-1.049 -2.578,-1.879 -3.74,-2.707 -0.894,0.794 -1.506,1.099 -1.487,1.355 0.645,8.529 3.141,16.678 10.493,21.382 17.609,11.265 35.572,21.991 53.617,32.549 14.089,8.244 28.385,16.157 42.826,23.768 16.954,8.934 34.172,17.367 51.261,26.047 10.291,5.227 20.546,10.524 30.838,15.748 C -3.811,-1.547 -1.858,-0.81 0,0"
       style="fill:#f9f9f9;fill-opacity:1;fill-rule:nonzero;stroke:none"
       transform="matrix(0.15504734,0,0,-0.15504734,168.09732,73.456342)"
       clip-path="url(#clipPath172)" />
    <path
       id="path173"
       d="m 0,0 c 4.05,-8.469 0.728,-16.873 -6.902,-19.829 -6.676,-2.587 -13.329,-5.322 -19.725,-8.526 -20.639,-10.341 -41.251,-20.746 -61.69,-31.475 -17.546,-9.211 -35.064,-18.519 -52.18,-28.494 -15.241,-8.882 -29.935,-18.703 -44.805,-28.211 -1.604,-1.026 -2.704,-2.808 -4.166,-4.093 -1.193,-1.049 -2.578,-1.879 -3.74,-2.707 -0.894,0.794 -1.506,1.098 -1.487,1.355 0.645,8.529 3.141,16.678 10.493,21.381 17.609,11.265 35.572,21.991 53.617,32.55 14.089,8.244 28.385,16.157 42.826,23.767 16.954,8.935 34.172,17.368 51.261,26.048 10.291,5.226 20.546,10.524 30.838,15.748 C -3.811,-1.547 -1.858,-0.81 0,0"
       style="fill:#f9f9f9;fill-opacity:1;fill-rule:nonzero;stroke:none"
       transform="matrix(0.15504734,0,0,-0.15504734,121.24685,74.119984)"
       clip-path="url(#clipPath174)" />
    <path
       id="path175"
       d="m 0,0 c -0.352,-1.075 -0.695,-3.061 -1.605,-4.739 -3.93,-7.25 -7.905,-14.482 -12.137,-21.557 -1.189,-1.987 -3.242,-3.491 -5.018,-5.083 -2.367,-2.124 -4.855,-2.382 -7.731,-0.643 -13.382,8.091 -26.914,15.938 -40.221,24.15 -5.398,3.331 -5.655,4.647 -2.157,10.007 5.938,9.098 12.193,17.992 18.467,26.865 2.568,3.631 4.126,3.928 8.273,1.594 4.921,-2.769 9.586,-5.99 14.474,-8.821 6.583,-3.812 13.338,-7.328 19.892,-11.187 C -4.02,8.383 -0.227,5.991 0,0"
       style="fill:#f9f9f9;fill-opacity:1;fill-rule:nonzero;stroke:none"
       transform="matrix(0.15504734,0,0,-0.15504734,177.3665,156.70436)"
       clip-path="url(#clipPath176)" />
    <path
       id="path177"
       d="m 0,0 c -3.346,1.957 -6.068,3.704 -8.925,5.193 -10.606,5.532 -14.821,3.665 -17.417,-7.943 -0.704,-3.146 -0.727,-6.48 -0.766,-9.732 -0.186,-15.672 -0.228,-31.345 -0.416,-47.017 -0.063,-5.213 -1.533,-9.815 -7.186,-13.019 -1.532,2.598 -3.104,4.85 -4.261,7.299 -3.62,7.662 -6.607,15.667 -10.769,23.013 -2.94,5.192 -7.39,9.53 -11.638,14.838 -1.388,-1.704 -2.159,-2.604 -2.879,-3.543 -1.403,-1.832 -3.086,-2.171 -5.176,-1.208 -4.543,2.094 -9.162,4.028 -13.667,6.198 -3.135,1.51 -3.97,4.49 -4.066,7.671 -0.199,6.629 1.33,13.015 3.749,19.071 0.843,2.109 3.469,3.506 5.651,5.581 10.454,-5.381 20.115,-11.347 27.716,-20.853 7.346,-9.188 10.95,-20.059 16.123,-30.405 1.847,5.34 0.904,10.648 1.007,15.881 0.159,8.048 0.004,16.104 0.292,24.145 0.349,9.726 3.561,18.792 7.349,27.612 2.994,6.971 5.511,8.218 12.774,6.672 2.935,-0.625 5.823,-1.766 8.533,-3.083 C 0.497,24.199 3.105,20.77 2.441,15.415 1.839,10.561 3.058,5.435 0,0"
       style="fill:#f9f9f9;fill-opacity:1;fill-rule:nonzero;stroke:none"
       transform="matrix(0.15504734,0,0,-0.15504734,125.29821,89.572932)"
       clip-path="url(#clipPath178)" />
    <path
       id="path179"
       d="M 0,0 C -0.807,4.429 -0.706,8.912 -4.046,12.763 -5.956,11.812 -7.792,10.898 -10.12,9.74 -6.4,6.16 -3.2,3.08 0,0 m -4.613,-21.909 c -5.987,-8.794 -12.704,-16.766 -21.131,-23.155 -4.138,-3.138 -8.165,-6.424 -12.308,-9.556 -0.741,-0.561 -1.801,-0.699 -2.714,-1.033 -0.272,0.373 -0.545,0.745 -0.818,1.117 11.266,11.645 22.532,23.289 34.413,35.57 -3.572,3.183 -6.746,6.054 -9.971,8.869 -1.471,1.284 -3.291,2.248 -4.517,3.721 -3.225,3.871 -4.726,7.804 -2.062,13.058 C -17.262,19.42 -7.338,27.748 6.78,32.756 10.728,19.921 13.771,7.7 6.447,-4.695 c 4.336,-2.586 8.119,-4.646 11.693,-7.021 5.064,-3.365 5.865,-5.369 4.12,-10.959 -1.407,-4.507 -3.285,-8.867 -5.179,-13.891 -7.579,4.964 -12.259,12.697 -21.694,14.657"
       style="fill:#f9f9f9;fill-opacity:1;fill-rule:nonzero;stroke:none"
       transform="matrix(0.15504734,0,0,-0.15504734,145.71342,123.42391)"
       clip-path="url(#clipPath180)" />
    <path
       id="path181"
       d="m 0,0 c 2.501,-2.38 4.927,-4.517 7.155,-6.844 7.07,-7.385 18.457,-10.08 29.051,1.851 -7.346,3.09 -14.084,6.879 -21.508,9.155 -5.509,1.688 -6.527,2.625 -6.292,6.687 0.32,5.524 3.585,10.523 7.479,11.022 10.441,1.34 19.653,-2.791 28.725,-7.019 1.193,-0.557 2.181,-3.458 1.87,-4.991 -1.118,-5.508 -2.566,-10.987 -4.407,-16.298 -1.419,-4.094 -3.511,-7.972 -5.489,-11.851 -3.277,-6.431 -8.54,-10.891 -14.899,-14.03 C 15.98,-35.134 10.189,-34.957 4.95,-31.246 -1.962,-26.35 -6.361,-20.062 -5.852,-10.974 -5.592,-6.333 -2.543,-3.646 0,0"
       style="fill:#f9f9f9;fill-opacity:1;fill-rule:nonzero;stroke:none"
       transform="matrix(0.15504734,0,0,-0.15504734,58.84151,78.87134)"
       clip-path="url(#clipPath182)" />
    <path
       id="path183"
       d="m 0,0 c 1.563,8.516 2.376,17.12 11.936,21.89 31.591,15.765 60.464,36.171 90.979,53.784 2.748,1.586 5.646,2.913 8.556,4.403 0.632,-1.156 1.304,-1.823 1.172,-2.228 C 110.174,70.254 106.668,63.462 99.13,59.505 68.814,43.596 40.552,22.805 11.01,5.406 7.711,3.463 4.541,1.301 1.311,-0.76 0.874,-0.507 0.437,-0.253 0,0"
       style="fill:#f9f9f9;fill-opacity:1;fill-rule:nonzero;stroke:none"
       transform="matrix(0.15504734,0,0,-0.15504734,53.79954,140.83623)"
       clip-path="url(#clipPath184)" />
    <path
       id="path209"
       d="m 0,0 c -10.74,5.799 -20.644,11.149 -30.552,16.493 -2.492,1.344 -4.998,2.664 -7.493,4.004 -2.388,1.281 -2.862,3.2 -1.59,5.474 1.699,3.039 3.395,6.097 5.344,8.976 4.886,7.214 9.848,14.38 14.911,21.47 2.894,4.052 3.724,4.123 8.087,1.834 C -3.581,54.208 4.119,50.142 11.853,46.141 20.455,41.69 22.096,37.364 17.798,28.674 14.132,21.263 10.182,13.981 6.064,6.811 4.376,3.873 2.561,0.705 0,0"
       style="fill:#f9f9f9;fill-opacity:1;fill-rule:nonzero;stroke:none"
       transform="matrix(0.15504734,0,0,-0.15504734,112.63877,135.35295)"
       clip-path="url(#clipPath210)" />
    <path
       id="path211"
       d="m 0,0 c 2.434,9.258 4.953,17.558 13.686,22.438 6.464,3.612 12.575,7.849 18.95,11.628 16.107,9.548 32.244,19.049 48.437,28.453 5.221,3.032 7.352,1.798 8.052,-4.206 C 90.023,50.609 87.864,46.994 80.448,44.375 68.011,39.985 56.754,33.446 45.908,26.049 41.236,22.863 36.158,20.281 31.394,17.223 24.265,12.648 17.122,8.075 10.231,3.156 5.659,-0.108 5.602,-0.468 0,0"
       style="fill:#f9f9f9;fill-opacity:1;fill-rule:nonzero;stroke:none"
       transform="matrix(0.15504734,0,0,-0.15504734,89.76355,143.2057)"
       clip-path="url(#clipPath212)" />
  </g>
</svg>
